<?xml version="1.0" encoding="UTF-8" standalone="no"?><!DOCTYPE svg PUBLIC "-//W3C//DTD SVG 1.1//EN" "http://www.w3.org/Graphics/SVG/1.1/DTD/svg11.dtd"><svg width="100%" height="100%" viewBox="0 0 184 184" version="1.1" xmlns="http://www.w3.org/2000/svg" xmlns:xlink="http://www.w3.org/1999/xlink" xml:space="preserve" xmlns:serif="http://www.serif.com/" style="fill-rule:evenodd;clip-rule:evenodd;stroke-linecap:round;stroke-linejoin:round;stroke-miterlimit:1.5;"><g id="conversion"><rect x="0" y="0" width="183.288" height="183.288" style="fill:none;"/><g><path d="M124.228,43.476c25.636,14.801 34.433,47.631 19.632,73.267" style="fill:none;stroke:#000;stroke-width:7px;"/><path d="M124.228,43.476l2.736,17.772" style="fill:none;stroke:#000;stroke-width:7px;"/><path d="M124.228,43.476l18.84,-2.12" style="fill:none;stroke:#000;stroke-width:7px;"/></g><g><path d="M59.06,139.493c-25.636,-14.801 -34.433,-47.631 -19.632,-73.267" style="fill:none;stroke:#000;stroke-width:7px;"/><path d="M59.06,139.493l-2.736,-17.772" style="fill:none;stroke:#000;stroke-width:7px;"/><path d="M59.06,139.493l-18.84,2.12" style="fill:none;stroke:#000;stroke-width:7px;"/></g><g><path d="M122.669,74.078l-31.025,17.1l0,36.9l31.025,-17.1l0,-36.9Z" style="fill:#fff;stroke:#000;stroke-width:7px;"/><path d="M122.676,72.947l-30.31,-18.094l-31.754,18.557l30.31,18.094l31.754,-18.557Z" style="fill:#fff;stroke:#000;stroke-width:7px;"/><path d="M91.644,91.178l-31.025,-17.1l0,36.9l31.025,17.1l0,-36.9Z" style="fill:#fff;stroke:#000;stroke-width:7px;"/></g></g></svg>