<?xml version="1.0" encoding="UTF-8" standalone="no"?><!DOCTYPE svg PUBLIC "-//W3C//DTD SVG 1.1//EN" "http://www.w3.org/Graphics/SVG/1.1/DTD/svg11.dtd"><svg width="100%" height="100%" viewBox="0 0 184 184" version="1.1" xmlns="http://www.w3.org/2000/svg" xmlns:xlink="http://www.w3.org/1999/xlink" xml:space="preserve" xmlns:serif="http://www.serif.com/" style="fill-rule:evenodd;clip-rule:evenodd;stroke-linecap:round;stroke-linejoin:round;stroke-miterlimit:1.5;"><g id="rotate-indicator" serif:id="rotate indicator"><g><path d="M91.644,134.557l-15.29,-15.3" style="fill:none;stroke:#000;stroke-width:7px;"/><path d="M76.354,150.757c0,0 15.321,-16.2 15.29,-16.2c-41.754,0 -67.5,-21.236 -67.5,-37.35c0,-20.614 30.246,-37.35 67.5,-37.35c37.254,0 67.5,16.736 67.5,37.35c0,15.214 -19.446,33.75 -48.6,37.35" style="fill:none;stroke:#000;stroke-width:7px;"/></g><g><path d="M124.054,51.757l-31.025,17.1l0,36.9l31.025,-17.1l0,-36.9Z" style="fill:#fff;stroke:#000;stroke-width:7px;"/><path d="M124.06,50.625l-30.31,-18.094l-31.753,18.557l30.31,18.094l31.753,-18.557Z" style="fill:#fff;stroke:#000;stroke-width:7px;"/><path d="M93.029,68.857l-31.026,-17.1l0,36.9l31.026,17.1l0,-36.9Z" style="fill:#fff;stroke:#000;stroke-width:7px;"/></g><rect x="0" y="0" width="183.288" height="183.288" style="fill:none;"/></g></svg>