<?xml version="1.0" encoding="UTF-8" standalone="no"?><!DOCTYPE svg PUBLIC "-//W3C//DTD SVG 1.1//EN" "http://www.w3.org/Graphics/SVG/1.1/DTD/svg11.dtd"><svg width="100%" height="100%" viewBox="0 0 184 184" version="1.1" xmlns="http://www.w3.org/2000/svg" xmlns:xlink="http://www.w3.org/1999/xlink" xml:space="preserve" xmlns:serif="http://www.serif.com/" style="fill-rule:evenodd;clip-rule:evenodd;stroke-linecap:round;stroke-linejoin:round;stroke-miterlimit:1.5;"><g id="services-photoshoot"><rect x="0" y="0" width="183.288" height="183.288" style="fill:none;"/><g><path d="M119.577,75.99l-27.933,15.395l0,33.223l27.933,-15.396l0,-33.222Z" style="fill:#fff;stroke:#000;stroke-width:7px;"/><path d="M119.583,74.971l-27.289,-16.291l-28.589,16.708l27.289,16.29l28.589,-16.707Z" style="fill:#fff;stroke:#000;stroke-width:7px;"/><path d="M91.644,91.385l-27.933,-15.395l0,33.222l27.933,15.396l0,-33.223Z" style="fill:#fff;stroke:#000;stroke-width:7px;"/></g><g><path d="M39.008,63.57l0,-24.314l24.697,0" style="fill:none;stroke:#000;stroke-width:7px;"/><path d="M63.513,142.094l-24.314,0l0,-24.697" style="fill:none;stroke:#000;stroke-width:7px;"/><path d="M144.274,117.588l0,24.314l-24.697,0" style="fill:none;stroke:#000;stroke-width:7px;"/><path d="M119.768,39.256l24.315,0l0,24.697" style="fill:none;stroke:#000;stroke-width:7px;"/></g></g></svg>