<?xml version="1.0" encoding="UTF-8" standalone="no"?><!DOCTYPE svg PUBLIC "-//W3C//DTD SVG 1.1//EN" "http://www.w3.org/Graphics/SVG/1.1/DTD/svg11.dtd"><svg width="100%" height="100%" viewBox="0 0 232 252" version="1.1" xmlns="http://www.w3.org/2000/svg" xmlns:xlink="http://www.w3.org/1999/xlink" xml:space="preserve" xmlns:serif="http://www.serif.com/" style="fill-rule:evenodd;clip-rule:evenodd;stroke-linecap:round;stroke-linejoin:round;stroke-miterlimit:1.5;"><g id="Upload-Images" serif:id="Upload Images"><g id="Product"><rect x="97" y="14.285" width="134.694" height="223.309" style="fill:#e1e1e1;"/><path d="M174.871,175.563l19.368,-19.386l0,-79.647l-19.537,19.556l0.169,79.477Z" style="fill:#fff;stroke:#000;stroke-width:7px;"/><path d="M134.625,175.161l19.123,-19.141l0,-79.647l-19.293,19.311l0.17,79.477Z" style="fill:#e1e1e1;stroke:#000;stroke-width:7px;"/><path d="M134.921,175.563l39.95,0l0,-79.722l-40.273,-0.402l0.323,80.124Z" style="fill:#fff;stroke:#000;stroke-width:7px;"/><path d="M174.871,95.841l19.368,-19.311l-40.536,-0.213l-19.105,19.122l40.273,0.402Z" style="fill:#fff;stroke:#000;stroke-width:7px;"/></g><g id="Product1" serif:id="Product"><rect x="0" y="0" width="151.927" height="251.88" style="fill:#fff;"/><path d="M87.834,181.911l21.846,-21.866l0,-89.836l-22.037,22.057l0.191,89.645Z" style="fill:#595959;stroke:#000;stroke-width:7px;"/><path d="M42.439,181.458l21.57,-21.59l0,-89.837l-21.762,21.782l0.192,89.645Z" style="fill:none;stroke:#000;stroke-width:7px;"/><path d="M42.772,181.911l45.062,0l0,-89.921l-45.425,-0.453l0.363,90.374Z" style="fill:#fff;stroke:#000;stroke-width:7px;"/><path d="M87.834,91.99l21.846,-21.781l-45.723,-0.241l-21.548,21.569l45.425,0.453Z" style="fill:#fff;stroke:#000;stroke-width:7px;"/></g></g></svg>