<?xml version="1.0" encoding="UTF-8" standalone="no"?><!DOCTYPE svg PUBLIC "-//W3C//DTD SVG 1.1//EN" "http://www.w3.org/Graphics/SVG/1.1/DTD/svg11.dtd"><svg width="100%" height="100%" viewBox="0 0 271 273" version="1.1" xmlns="http://www.w3.org/2000/svg" xmlns:xlink="http://www.w3.org/1999/xlink" xml:space="preserve" xmlns:serif="http://www.serif.com/" style="fill-rule:evenodd;clip-rule:evenodd;stroke-linecap:round;stroke-linejoin:round;stroke-miterlimit:1.5;"><g id="cube3dContainer"><rect x="5.13" y="0" width="265.145" height="272.639" style="fill:none;"/><g id="strahlen"><path id="s6" d="M223.287,133.957l24.764,-0.489" style="fill:none;stroke:#000;stroke-width:7px;"/><path id="s5" d="M30.578,137.756l-27.078,0.534" style="fill:none;stroke:#000;stroke-width:7px;"/><path id="s4" d="M204.259,189.306l16.229,15.624" style="fill:none;stroke:#000;stroke-width:7px;"/><path id="s3" d="M53.652,192.276l-15.702,15.678" style="fill:none;stroke:#000;stroke-width:7px;"/><path id="s2" d="M205.215,79.376l15.131,-14.691" style="fill:none;stroke:#000;stroke-width:7px;"/><path id="s1" d="M48.072,82.474l-16.53,-14.452" style="fill:none;stroke:#000;stroke-width:7px;"/></g><g id="Product"><path d="M137.703,189.556l21.949,-21.969l0,-90.263l-22.142,22.162l0.193,90.07Z" style="fill:#fff;stroke:#000;stroke-width:7px;"/><path d="M92.092,189.101l21.672,-21.693l0,-90.262l-21.864,21.885l0.192,90.07Z" style="fill:none;stroke:#000;stroke-width:7px;"/><path d="M92.427,189.556l45.276,0l0,-90.347l-45.641,-0.455l0.365,90.802Z" style="fill:#fff;stroke:#000;stroke-width:7px;"/><path d="M137.703,99.209l21.949,-21.885l-45.94,-0.241l-21.65,21.671l45.641,0.455Z" style="fill:#fff;stroke:#000;stroke-width:7px;"/></g></g></svg>