<?xml version="1.0" encoding="UTF-8" standalone="no"?><!DOCTYPE svg PUBLIC "-//W3C//DTD SVG 1.1//EN" "http://www.w3.org/Graphics/SVG/1.1/DTD/svg11.dtd"><svg width="100%" height="100%" viewBox="0 0 183 301" version="1.1" xmlns="http://www.w3.org/2000/svg" xmlns:xlink="http://www.w3.org/1999/xlink" xml:space="preserve" xmlns:serif="http://www.serif.com/" style="fill-rule:evenodd;clip-rule:evenodd;stroke-linecap:round;stroke-linejoin:round;stroke-miterlimit:1.5;"><g id="photos"><g id="Product"><path d="M162.432,86.823l16.26,-16.275l0,-66.869l-16.402,16.418l0.142,66.726Z" style="fill:#fff;stroke:#000;stroke-width:7px;"/><path d="M128.642,86.486l16.056,-16.071l0,-66.868l-16.198,16.213l0.142,66.726Z" style="fill:none;stroke:#000;stroke-width:7px;"/><path d="M128.891,86.823l33.541,0l0,-66.931l-33.812,-0.338l0.271,67.269Z" style="fill:#fff;stroke:#000;stroke-width:7px;"/><path d="M162.432,19.892l16.26,-16.213l-34.033,-0.179l-16.039,16.054l33.812,0.338Z" style="fill:#fff;stroke:#000;stroke-width:7px;"/></g><g><path d="M140.764,64.301c0,-10.563 -8.576,-19.139 -19.14,-19.139l-98.985,0c-10.563,0 -19.139,8.576 -19.139,19.139l0,213.721c0,10.564 8.576,19.14 19.139,19.14l98.985,0c10.564,0 19.14,-8.576 19.14,-19.14l0,-213.721Z" style="fill:#383838;stroke:#000;stroke-width:7px;"/><path d="M106.008,48.681c0,-1.942 -1.577,-3.519 -3.52,-3.519l-60.713,0c-1.942,0 -3.519,1.577 -3.519,3.519l0,7.039c0,1.943 1.577,3.52 3.519,3.52l60.713,0c1.943,0 3.52,-1.577 3.52,-3.52l0,-7.039Z" style="stroke:#000;stroke-width:7px;"/><path d="M51.963,278.334l40.5,0" style="fill:none;stroke:#000;stroke-width:7px;"/></g><g id="Product1" serif:id="Product"><path d="M84.059,227.398l21.949,-21.969l0,-90.262l-22.142,22.162l0.193,90.069Z" style="fill:#fff;stroke:#000;stroke-width:7px;"/><path d="M38.448,226.943l21.672,-21.693l0,-90.262l-21.864,21.885l0.192,90.07Z" style="fill:none;stroke:#000;stroke-width:7px;"/><path d="M38.783,227.398l45.276,0l0,-90.347l-45.641,-0.455l0.365,90.802Z" style="fill:#fff;stroke:#000;stroke-width:7px;"/><path d="M84.059,137.051l21.949,-21.884l-45.94,-0.242l-21.65,21.671l45.641,0.455Z" style="fill:#fff;stroke:#000;stroke-width:7px;"/></g></g></svg>