<?xml version="1.0" encoding="UTF-8" standalone="no"?><!DOCTYPE svg PUBLIC "-//W3C//DTD SVG 1.1//EN" "http://www.w3.org/Graphics/SVG/1.1/DTD/svg11.dtd"><svg width="100%" height="100%" viewBox="0 0 351 252" version="1.1" xmlns="http://www.w3.org/2000/svg" xmlns:xlink="http://www.w3.org/1999/xlink" xml:space="preserve" xmlns:serif="http://www.serif.com/" style="fill-rule:evenodd;clip-rule:evenodd;stroke-linecap:round;stroke-linejoin:round;stroke-miterlimit:1.5;"><g id="sets"><rect x="198.165" y="0" width="152" height="252" style="fill:#fff;"/><clipPath id="_clip1"><rect x="198.165" y="0" width="152" height="252"/></clipPath><g clip-path="url(#_clip1)"><g id="Product"><path d="M337.862,51.862l16.124,-16.14l0,-67.157l-16.267,16.283l0.143,67.014Z" style="fill:none;stroke:#000;stroke-width:7px;"/><path d="M338.111,52.201l33.686,0l0,-67.22l-33.958,-0.339l0.272,67.559Z" style="fill:#fff;stroke:#000;stroke-width:7px;"/></g><g id="Product1" serif:id="Product"><path d="M337.862,163.162l16.124,-16.14l0,-67.156l-16.267,16.282l0.143,67.014Z" style="fill:none;stroke:#000;stroke-width:7px;"/><path d="M338.111,163.501l33.686,0l0,-67.22l-33.958,-0.339l0.272,67.559Z" style="fill:#fff;stroke:#000;stroke-width:7px;"/><path d="M371.797,96.281l16.331,-16.283l-34.18,-0.18l-16.109,16.124l33.958,0.339Z" style="fill:#fff;stroke:#000;stroke-width:7px;"/></g><g id="Product2" serif:id="Product"><path d="M337.862,277.143l16.124,-16.14l0,-67.156l-16.267,16.282l0.143,67.014Z" style="fill:none;stroke:#000;stroke-width:7px;"/><path d="M338.111,277.482l33.686,0l0,-67.22l-33.958,-0.339l0.272,67.559Z" style="fill:#fff;stroke:#000;stroke-width:7px;"/><path d="M371.797,210.262l16.331,-16.283l-34.18,-0.18l-16.109,16.124l33.958,0.339Z" style="fill:#fff;stroke:#000;stroke-width:7px;"/></g><g id="Product3" serif:id="Product"><path d="M288.225,52.201l16.331,-16.346l0,-67.157l-16.474,16.489l0.143,67.014Z" style="fill:#595959;stroke:#000;stroke-width:7px;"/><path d="M254.29,51.862l16.125,-16.14l0,-67.157l-16.268,16.283l0.143,67.014Z" style="fill:none;stroke:#000;stroke-width:7px;"/><path d="M254.54,52.201l33.685,0l0,-67.22l-33.957,-0.339l0.272,67.559Z" style="fill:#fff;stroke:#000;stroke-width:7px;"/></g><g id="Product4" serif:id="Product"><path d="M288.225,163.501l16.331,-16.346l0,-67.157l-16.474,16.489l0.143,67.014Z" style="fill:#595959;stroke:#000;stroke-width:7px;"/><path d="M254.29,163.162l16.125,-16.14l0,-67.156l-16.268,16.282l0.143,67.014Z" style="fill:none;stroke:#000;stroke-width:7px;"/><path d="M254.54,163.501l33.685,0l0,-67.22l-33.957,-0.339l0.272,67.559Z" style="fill:#fff;stroke:#000;stroke-width:7px;"/><path d="M288.225,96.281l16.331,-16.283l-34.18,-0.18l-16.108,16.124l33.957,0.339Z" style="fill:#fff;stroke:#000;stroke-width:7px;"/></g><g id="Product5" serif:id="Product"><path d="M288.225,277.482l16.331,-16.346l0,-67.157l-16.474,16.489l0.143,67.014Z" style="fill:#595959;stroke:#000;stroke-width:7px;"/><path d="M254.29,277.143l16.125,-16.14l0,-67.156l-16.268,16.282l0.143,67.014Z" style="fill:none;stroke:#000;stroke-width:7px;"/><path d="M254.54,277.482l33.685,0l0,-67.22l-33.957,-0.339l0.272,67.559Z" style="fill:#fff;stroke:#000;stroke-width:7px;"/><path d="M288.225,210.262l16.331,-16.283l-34.18,-0.18l-16.108,16.124l33.957,0.339Z" style="fill:#fff;stroke:#000;stroke-width:7px;"/></g><g id="Product6" serif:id="Product"><path d="M207.951,52.201l16.33,-16.346l0,-67.157l-16.473,16.489l0.143,67.014Z" style="fill:#595959;stroke:#000;stroke-width:7px;"/><path d="M174.015,51.862l16.125,-16.14l0,-67.157l-16.268,16.283l0.143,67.014Z" style="fill:none;stroke:#000;stroke-width:7px;"/><path d="M174.265,52.201l33.686,0l0,-67.22l-33.958,-0.339l0.272,67.559Z" style="fill:#fff;stroke:#000;stroke-width:7px;"/></g><g id="Product7" serif:id="Product"><path d="M207.951,163.501l16.33,-16.346l0,-67.157l-16.473,16.489l0.143,67.014Z" style="fill:#595959;stroke:#000;stroke-width:7px;"/><path d="M174.015,163.162l16.125,-16.14l0,-67.156l-16.268,16.282l0.143,67.014Z" style="fill:none;stroke:#000;stroke-width:7px;"/><path d="M174.265,163.501l33.686,0l0,-67.22l-33.958,-0.339l0.272,67.559Z" style="fill:#fff;stroke:#000;stroke-width:7px;"/><path d="M207.951,96.281l16.33,-16.283l-34.18,-0.18l-16.108,16.124l33.958,0.339Z" style="fill:#fff;stroke:#000;stroke-width:7px;"/></g><g id="Product8" serif:id="Product"><path d="M207.951,277.482l16.33,-16.346l0,-67.157l-16.473,16.489l0.143,67.014Z" style="fill:#595959;stroke:#000;stroke-width:7px;"/><path d="M174.015,277.143l16.125,-16.14l0,-67.156l-16.268,16.282l0.143,67.014Z" style="fill:none;stroke:#000;stroke-width:7px;"/><path d="M174.265,277.482l33.686,0l0,-67.22l-33.958,-0.339l0.272,67.559Z" style="fill:#fff;stroke:#000;stroke-width:7px;"/><path d="M207.951,210.262l16.33,-16.283l-34.18,-0.18l-16.108,16.124l33.958,0.339Z" style="fill:#fff;stroke:#000;stroke-width:7px;"/></g></g><g id="Product9" serif:id="Product"><rect x="0" y="0" width="152" height="252" style="fill:#fff;"/><path d="M87.876,181.998l21.856,-21.876l0,-89.88l-22.047,22.068l0.191,89.688Z" style="fill:#595959;stroke:#000;stroke-width:7px;"/><path d="M42.459,181.545l21.58,-21.601l0,-89.879l-21.771,21.792l0.191,89.688Z" style="fill:none;stroke:#000;stroke-width:7px;"/><path d="M42.793,181.998l45.083,0l0,-89.964l-45.447,-0.453l0.364,90.417Z" style="fill:#fff;stroke:#000;stroke-width:7px;"/><path d="M87.876,92.034l21.856,-21.792l-45.744,-0.24l-21.559,21.579l45.447,0.453Z" style="fill:#fff;stroke:#000;stroke-width:7px;"/></g></g></svg>