<?xml version="1.0" encoding="UTF-8" standalone="no"?><!DOCTYPE svg PUBLIC "-//W3C//DTD SVG 1.1//EN" "http://www.w3.org/Graphics/SVG/1.1/DTD/svg11.dtd"><svg width="100%" height="100%" viewBox="0 0 75 119" version="1.1" xmlns="http://www.w3.org/2000/svg" xmlns:xlink="http://www.w3.org/1999/xlink" xml:space="preserve" xmlns:serif="http://www.serif.com/" style="fill-rule:evenodd;clip-rule:evenodd;stroke-linecap:round;stroke-linejoin:round;stroke-miterlimit:1.5;"><g id="Top"><path d="M69.599,0.459c0.399,-0.163 0.926,-0.243 1.757,-0.196c1.725,0.292 3.008,1.688 3.109,3.478l0,89.68c0.016,0.195 0.015,0.393 -0.005,0.592c-0.085,1.218 -0.769,2.288 -1.77,2.895l-16.21,16.162l-4.895,4.9c-0.075,0.068 -0.152,0.131 -0.232,0.19c-0.482,0.419 -0.927,0.69 -1.777,0.784c-0.153,0.027 -0.308,0.045 -0.467,0.053l-45.084,0c-1.154,-0.057 -2.176,-0.646 -2.815,-1.534c-0.775,-0.758 -1.2,-1.837 -1.02,-2.956l-0.19,-89.144c0.081,-1.493 0.409,-1.793 1.024,-2.482l0.063,-0.063c0.098,-0.111 0.203,-0.215 0.313,-0.313l21.396,-21.416c0.616,-0.551 0.994,-0.978 2.247,-1.014c0.166,-0.03 0.336,-0.049 0.509,-0.056l44.047,0.44Zm-43.37,96.978l-14.158,14.171l33.53,0.335l-0.031,-14.506l-19.341,0Zm26.38,0l0,9.604l9.596,-9.604l-9.596,0Zm-45.121,8.805l14.284,-14.297l0,-63.185l-14.596,-0.146l0.312,77.628Zm45.121,-79.176l0,63.023l14.856,0.079l0,-77.972l-14.856,14.87Zm-23.243,62.901l16.188,0.085l-0.13,-61.056l-16.305,-0.163l0.247,61.134Zm-0.275,-68.135l18.665,0.187l14.619,-14.632l-33.343,-0.333l0.059,14.778Zm-16.955,-0.169l9.636,0.096l0,-9.741l-9.636,9.645Z" style="fill-opacity:0.16;"/><path d="M49.109,25.532l21.856,-21.791l-45.745,-0.241l-21.559,21.579l45.448,0.453Z" style="fill:#fff;stroke:#000;stroke-width:7px;"/></g></svg>