<?xml version="1.0" encoding="UTF-8" standalone="no"?><!DOCTYPE svg PUBLIC "-//W3C//DTD SVG 1.1//EN" "http://www.w3.org/Graphics/SVG/1.1/DTD/svg11.dtd"><svg width="100%" height="100%" viewBox="0 0 130 120" version="1.1" xmlns="http://www.w3.org/2000/svg" xmlns:xlink="http://www.w3.org/1999/xlink" xml:space="preserve" xmlns:serif="http://www.serif.com/" style="fill-rule:evenodd;clip-rule:evenodd;stroke-linecap:round;stroke-linejoin:round;stroke-miterlimit:1.5;"><g id="Graphic"><circle cx="84.578" cy="44.578" r="39.578" style="fill:none;stroke:#000;stroke-width:10px;"/><rect x="5" y="31.96" width="79.157" height="82.986" style="fill:#fff;stroke:#000;stroke-width:10px;"/><path d="M40.741,61.245l0,31.579l8.518,0l0,-31.579l11.612,0l0,-7.162l-31.742,0l0,7.162l11.612,0Z" style="fill-rule:nonzero;"/><path d="M61.871,62.245l-11.612,0l0,31.579l-10.518,0l0,-31.579l-11.612,0l0,-9.162l33.742,0l0,9.162Zm-32.742,-8.162l0,7.162l11.612,0l0,31.579l8.518,0l0,-31.579l11.612,0l0,-7.162l-31.742,0Z"/></g></svg>