<?xml version="1.0" encoding="UTF-8" standalone="no"?><!DOCTYPE svg PUBLIC "-//W3C//DTD SVG 1.1//EN" "http://www.w3.org/Graphics/SVG/1.1/DTD/svg11.dtd"><svg width="100%" height="100%" viewBox="0 0 75 119" version="1.1" xmlns="http://www.w3.org/2000/svg" xmlns:xlink="http://www.w3.org/1999/xlink" xml:space="preserve" xmlns:serif="http://www.serif.com/" style="fill-rule:evenodd;clip-rule:evenodd;stroke-linecap:round;stroke-linejoin:round;stroke-miterlimit:1.5;"><g id="Bottom"><path d="M49.109,115.478l21.856,-21.792l-45.745,-0.241l-21.559,21.579l45.448,0.454Z" style="fill:#fff;stroke:#000;stroke-width:7px;"/><path d="M0.67,23.284c0.141,-0.229 0.312,-0.457 0.515,-0.679l21.559,-21.579c0.669,-0.619 1.152,-0.98 2.495,-1.026c15.248,0.08 30.496,0.16 45.744,0.241c0.061,0.003 0.121,0.007 0.181,0.013c0.062,0.002 0.126,0.005 0.192,0.009c0.333,0.056 0.65,0.154 0.945,0.288c1.366,0.599 2.289,1.979 2.164,3.465l0,89.921c-0.065,1.314 -0.822,2.459 -1.925,3.059l-20.955,20.974c-0.263,0.235 -0.549,0.42 -0.849,0.557c-0.484,0.273 -1.036,0.441 -1.627,0.47l-45.084,0c-1.308,-0.064 -2.447,-0.812 -3.049,-1.905c-0.444,-0.535 -0.737,-1.222 -0.785,-2.041l-0.191,-89.688c0.064,-1.175 0.28,-1.611 0.67,-2.079Zm25.559,74.153l-14.546,14.56l33.918,0l-0.031,-14.56l-19.341,0Zm26.38,0l0,9.604l9.596,-9.604l-9.596,0Zm-30.837,-68.677l-14.596,-0.146l0.312,77.677l14.284,-14.297l0,-63.234Zm7.595,61.677l16.188,0l-0.131,-61.441l-16.305,-0.163l0.248,61.604Zm23.242,-63.371l0,63.371l14.856,0l0,-78.241l-14.856,14.87Zm-23.518,-5.234l18.586,0.186l14.674,-14.631l-33.319,-0.333l0.059,14.778Zm-16.955,-0.169l9.636,0.096l0,-9.741l-9.636,9.645Z" style="fill-opacity:0.16;"/></g></svg>