<?xml version="1.0" encoding="UTF-8" standalone="no"?><!DOCTYPE svg PUBLIC "-//W3C//DTD SVG 1.1//EN" "http://www.w3.org/Graphics/SVG/1.1/DTD/svg11.dtd"><svg width="100%" height="100%" viewBox="0 0 75 119" version="1.1" xmlns="http://www.w3.org/2000/svg" xmlns:xlink="http://www.w3.org/1999/xlink" xml:space="preserve" xmlns:serif="http://www.serif.com/" style="fill-rule:evenodd;clip-rule:evenodd;stroke-linecap:round;stroke-linejoin:round;stroke-miterlimit:1.5;"><g id="Right"><path d="M25.3,0l0.007,0l0.068,0.001l45.608,0.239c1.726,0.085 1.96,0.525 2.467,1.035c0.916,0.924 1.166,2.345 0.769,3.587l0,89.056c-0.092,1.869 -1.594,3.406 -3.5,3.5l-18.11,0l0,18.078c-0.092,1.87 -1.594,3.407 -3.5,3.5l-45.084,0c-1.33,-0.065 -2.485,-0.837 -3.079,-1.96c-0.428,-0.53 -0.709,-1.2 -0.755,-1.986l-0.191,-89.687c0.042,-0.771 0.056,-1.267 0.708,-2.104c0.134,-0.234 0.294,-0.454 0.477,-0.654l21.559,-21.579c0.513,-0.474 0.916,-0.796 1.679,-0.942l0.047,-0.009c0.206,-0.037 0.439,-0.061 0.706,-0.073l0.062,-0.002l0.062,0Zm20.309,97.418l-19.361,0l-14.565,14.578l33.926,0l0,-14.578Zm-23.837,-68.658l-14.596,-0.146l0.312,77.676l14.284,-14.296l0,-63.234Zm7.35,61.658l16.487,0l0,-61.42l-10.009,-0.1l-5.596,-0.056l-1.13,-0.011l0.248,61.587Zm38.097,-78l-14.61,14.567l0,63.433l14.61,0l0,-78Zm-38.373,9.412l6.824,0.068l12.006,0.12l14.691,-14.648l-33.581,-0.335l0.06,14.795Zm-16.71,-0.167l9.636,0.096l0,-9.741l-9.636,9.645Z" style="fill-opacity:0.16;"/><path d="M49.109,115.497l21.856,-21.877l0,-89.88l-22.048,22.069l0.192,89.688Z" style="fill:#fff;stroke:#000;stroke-width:7px;"/></g></svg>