<?xml version="1.0" encoding="UTF-8" standalone="no"?><!DOCTYPE svg PUBLIC "-//W3C//DTD SVG 1.1//EN" "http://www.w3.org/Graphics/SVG/1.1/DTD/svg11.dtd"><svg width="100%" height="100%" viewBox="0 0 75 120" version="1.1" xmlns="http://www.w3.org/2000/svg" xmlns:xlink="http://www.w3.org/1999/xlink" xml:space="preserve" xmlns:serif="http://www.serif.com/" style="fill-rule:evenodd;clip-rule:evenodd;stroke-linecap:round;stroke-linejoin:round;stroke-miterlimit:1.5;"><g id="Left"><path id="left" d="M3.691,115.043l21.581,-21.6l0,-89.88l-21.772,21.792l0.191,89.688Z" style="fill:#fff;stroke:#000;stroke-width:7px;"/><path id="shade" d="M70.452,0.238c0.148,-0.008 0.306,-0.005 0.481,0.002l0.05,0c0.116,0.005 0.225,0.012 0.328,0.02l0.045,0.002l0.012,0.003c1.385,0.119 1.62,0.545 2.082,1.01c0.793,0.8 1.175,1.854 1.015,2.921l0,89.303c0.058,0.913 -0.253,1.882 -1.035,2.72l-21.856,21.792c-0.012,0.011 -0.024,0.022 -0.037,0.033c-0.519,0.575 -1.325,0.959 -2.469,0.988l-45.447,-0.453c-3.538,-0.162 -4.86,-6.873 0.07,-7l41.91,0.418l-0.032,-14.89l-20.373,-0.107c0,0 -5.622,-2.372 -2.615,-5.806c0.654,-0.746 1.266,-1.152 2.652,-1.194l20.322,0.107l-0.131,-61.111l-41.798,-0.418c-0.243,-0.011 -0.461,-0.029 -0.656,-0.053l-0.039,-0.006c-1.208,-0.16 -1.535,-0.572 -1.886,-1.078c-0.066,-0.095 -0.133,-0.193 -0.206,-0.293c-1.468,-2.002 -0.033,-5.4 2.608,-5.563c0.041,-0.002 0.083,-0.003 0.124,-0.004l0.063,-0.001c0.021,0 0.041,-0.001 0.062,-0.001l43.981,0.439l14.865,-14.822l-37.34,-0.196c0,0 -3.496,-0.913 -3.482,-3.518c0.01,-1.828 1.627,-3.424 3.518,-3.482l45.214,0.238Zm-17.861,106.821l9.854,-9.863l-9.875,-0.052l0.021,9.915Zm14.874,-16.837l0,-78.026c-5.015,5.019 -10.03,10.039 -15.045,15.058l0.135,62.89l14.91,0.078Z" style="fill-opacity:0.16;"/></g></svg>