<?xml version="1.0" encoding="UTF-8" standalone="no"?><!DOCTYPE svg PUBLIC "-//W3C//DTD SVG 1.1//EN" "http://www.w3.org/Graphics/SVG/1.1/DTD/svg11.dtd"><svg width="100%" height="100%" viewBox="0 0 75 119" version="1.1" xmlns="http://www.w3.org/2000/svg" xmlns:xlink="http://www.w3.org/1999/xlink" xml:space="preserve" xmlns:serif="http://www.serif.com/" style="fill-rule:evenodd;clip-rule:evenodd;stroke-linecap:round;stroke-linejoin:round;stroke-miterlimit:1.5;"><g id="Front"><path id="shade" d="M70.305,0.238c0.147,-0.008 0.304,-0.005 0.477,0.002l0.052,0c0.042,0.002 0.084,0.005 0.125,0.009c0.079,0.004 0.161,0.009 0.248,0.013c0.604,0.103 1.154,0.341 1.618,0.684l0.012,0.008l0.025,0.019c0.789,0.592 1.322,1.483 1.424,2.457c0.014,0.102 0.024,0.206 0.03,0.31l0,89.88c-0.084,1.489 -0.411,1.787 -1.024,2.474l-21.856,21.876c-2.115,1.892 -5.804,0.5 -5.976,-2.466l-0.185,-86.508l-41.798,-0.417c-2.815,-0.151 -4.777,-3.423 -2.441,-5.974l21.559,-21.579c0.669,-0.619 1.152,-0.98 2.494,-1.026l45.216,0.238Zm-18.034,27.016l0.171,79.805l14.874,-14.888l0,-79.975c-5.015,5.019 -10.03,10.039 -15.045,15.058Zm-40.398,-5.592l35.654,0.356l14.866,-14.822l-35.879,-0.188c-4.88,4.884 -9.76,9.769 -14.641,14.654Z" style="fill-opacity:0.16;"/><path id="front" d="M3.876,115.497l45.084,0l0,-89.965l-45.448,-0.453l0.364,90.418Z" style="fill:#fff;stroke:#000;stroke-width:7px;"/></g></svg>