<?xml version="1.0" encoding="UTF-8" standalone="no"?><!DOCTYPE svg PUBLIC "-//W3C//DTD SVG 1.1//EN" "http://www.w3.org/Graphics/SVG/1.1/DTD/svg11.dtd"><svg width="100%" height="100%" viewBox="0 0 75 119" version="1.1" xmlns="http://www.w3.org/2000/svg" xmlns:xlink="http://www.w3.org/1999/xlink" xml:space="preserve" xmlns:serif="http://www.serif.com/" style="fill-rule:evenodd;clip-rule:evenodd;stroke-linecap:round;stroke-linejoin:round;stroke-miterlimit:1.5;"><g id="Back"><path d="M25.636,93.981l45.083,0l0,-89.965l-45.447,-0.453l0.364,90.418Z" style="fill:#fff;stroke:#000;stroke-width:7px;"/><path d="M0.676,23.277c0.139,-0.228 0.308,-0.453 0.509,-0.672l21.559,-21.579c0.669,-0.619 1.152,-0.98 2.494,-1.026c15.249,0.08 30.497,0.16 45.745,0.24c0.097,0.005 0.189,0.011 0.278,0.018c0.031,0.001 0.063,0.002 0.095,0.004l0.028,0.005c2.042,0.178 2.128,0.878 2.618,1.734c0.224,0.392 0.357,0.822 0.407,1.263c0.028,0.155 0.047,0.314 0.056,0.476l0,89.88c-0.061,1.085 -0.252,1.538 -0.588,1.97c-0.125,0.21 -0.272,0.409 -0.441,0.593l-21.856,21.792c-0.657,0.605 -1.135,0.964 -2.41,1.018l-0.017,0.001l-0.044,0.002l-45.084,0c-1.047,-0.051 -1.986,-0.541 -2.628,-1.295c-0.48,-0.43 -0.818,-1.002 -0.996,-1.628c-0.116,-0.314 -0.188,-0.656 -0.21,-1.023l-0.191,-89.687c0.064,-1.181 0.283,-1.615 0.676,-2.086Zm11.376,88.35l33.549,0.334l-0.032,-14.89l-18.876,-0.099l-14.641,14.655Zm40.557,-4.586l9.871,-9.881l-9.871,-0.052l0,9.933Zm-45.121,-0.78l14.284,-14.297l0,-63.204l-14.596,-0.146l0.312,77.647Zm45.121,-79.195l0,63.042l14.856,0.078l0,-77.99l-14.856,14.87Zm-23.837,62.917l16.782,0.088l-0.13,-61.075l-9.646,-0.097l-7.006,-0.069l0,61.153Zm0,-82.964l0,14.81l7.076,0.071l11.828,0.118l14.866,-14.822l-33.77,-0.177Zm-16.636,14.644l9.636,0.096l0,-9.741l-9.636,9.645Z" style="fill-opacity:0.16;"/></g></svg>