<?xml version="1.0" encoding="UTF-8" standalone="no"?><!DOCTYPE svg PUBLIC "-//W3C//DTD SVG 1.1//EN" "http://www.w3.org/Graphics/SVG/1.1/DTD/svg11.dtd"><svg width="100%" height="100%" viewBox="0 0 157 134" version="1.1" xmlns="http://www.w3.org/2000/svg" xmlns:xlink="http://www.w3.org/1999/xlink" xml:space="preserve" xmlns:serif="http://www.serif.com/" style="fill-rule:evenodd;clip-rule:evenodd;stroke-linejoin:round;stroke-miterlimit:2;"><path id="attention" d="M70.958,4.036c1.49,-2.503 4.187,-4.036 7.099,-4.036c2.912,0 5.609,1.533 7.099,4.036c15.791,26.534 53.7,90.23 69.796,117.276c1.52,2.553 1.551,5.725 0.083,8.308c-1.469,2.583 -4.211,4.178 -7.182,4.178c-31.889,0 -107.703,0 -139.592,0c-2.971,0 -5.713,-1.595 -7.181,-4.178c-1.469,-2.583 -1.437,-5.755 0.082,-8.308c16.096,-27.046 54.005,-90.742 69.796,-117.276Zm7.273,95.072c4.14,0 7.5,3.361 7.5,7.5c0,4.14 -3.36,7.5 -7.5,7.5c-4.139,0 -7.5,-3.36 -7.5,-7.5c0,-4.139 3.361,-7.5 7.5,-7.5Zm6.925,-55.5c0,-4.142 -2.783,-7.5 -6.925,-7.5c0,0 0,0 0,0c-4.142,0 -7.273,3.358 -7.273,7.5c0,11.327 0,32.674 0,44c0,4.142 3.131,7.5 7.273,7.5c0,0 0,0 0,0c4.142,0 6.925,-3.358 6.925,-7.5c0,-11.326 0,-32.673 0,-44Z" style="fill:#fff;"/></svg>