<?xml version="1.0" encoding="UTF-8" standalone="no"?>
<!DOCTYPE svg PUBLIC "-//W3C//DTD SVG 1.1//EN" "http://www.w3.org/Graphics/SVG/1.1/DTD/svg11.dtd">
<svg width="100%" height="100%" viewBox="0 0 45 45" version="1.1" xmlns="http://www.w3.org/2000/svg" xmlns:xlink="http://www.w3.org/1999/xlink" xml:space="preserve" xmlns:serif="http://www.serif.com/" style="fill-rule:evenodd;clip-rule:evenodd;stroke-linejoin:round;stroke-miterlimit:2;">
    <g transform="matrix(1,0,0,1,-3.1508,-3.1508)">
        <path d="M18.429,25.5L4.615,39.314C3.678,40.251 3.151,41.523 3.151,42.849C3.151,44.175 3.678,45.447 4.615,46.385C4.615,46.385 4.615,46.385 4.615,46.385C5.553,47.322 6.825,47.849 8.151,47.849C9.477,47.849 10.749,47.322 11.686,46.385L25.5,32.571L39.315,46.386C40.252,47.323 41.524,47.85 42.849,47.85C44.175,47.85 45.446,47.323 46.383,46.386C46.384,46.386 46.384,46.385 46.385,46.385C47.322,45.447 47.849,44.175 47.849,42.849C47.849,41.523 47.322,40.251 46.385,39.314L32.571,25.5L46.385,11.686C47.322,10.749 47.849,9.477 47.849,8.151C47.849,6.825 47.322,5.553 46.385,4.615C46.385,4.615 46.385,4.615 46.385,4.615C45.447,3.678 44.175,3.151 42.849,3.151C41.523,3.151 40.251,3.678 39.314,4.615L25.5,18.429L11.686,4.615C10.749,3.678 9.477,3.151 8.151,3.151C6.825,3.151 5.553,3.678 4.615,4.615C4.615,4.615 4.615,4.615 4.615,4.615C3.678,5.553 3.151,6.825 3.151,8.151C3.151,9.477 3.678,10.749 4.615,11.686L18.429,25.5Z" style="fill:rgb(173,173,173);"/>
    </g>
</svg>
