<?xml version="1.0" encoding="UTF-8" standalone="no"?><!DOCTYPE svg PUBLIC "-//W3C//DTD SVG 1.1//EN" "http://www.w3.org/Graphics/SVG/1.1/DTD/svg11.dtd"><svg width="100%" height="100%" viewBox="0 0 119 95" version="1.1" xmlns="http://www.w3.org/2000/svg" xmlns:xlink="http://www.w3.org/1999/xlink" xml:space="preserve" xmlns:serif="http://www.serif.com/" style="fill-rule:evenodd;clip-rule:evenodd;stroke-linecap:round;stroke-linejoin:round;stroke-miterlimit:1.5;"><g id="dragndrop"><path d="M46.734,0.001l0.192,0.002l0.192,0.004l0.191,0.005l0.193,0.006l0.192,0.007l0.193,0.009l0.192,0.009l0.194,0.012l0.195,0.012l0.192,0.014l0.191,0.015l0.197,0.016l0.194,0.018l0.192,0.019l0.193,0.02l0.195,0.022l0.195,0.023l0.196,0.024l0.192,0.026l0.194,0.026l0.195,0.029l0.195,0.029l0.196,0.032l0.195,0.032l0.196,0.034l0.193,0.035l0.194,0.036l0.196,0.038l0.195,0.039l0.196,0.041l0.194,0.041l0.193,0.043l0.197,0.045l0.195,0.046l0.194,0.047l0.196,0.049l0.194,0.05l0.192,0.051l0.197,0.053l0.195,0.055l0.192,0.055l0.195,0.057l0.195,0.059l0.194,0.06l0.195,0.061l0.191,0.062l0.194,0.064l0.195,0.066l0.192,0.066l0.19,0.067l0.194,0.07l0.197,0.072l0.188,0.071l0.193,0.074l0.193,0.076l0.191,0.075l0.191,0.078l0.193,0.08l0.19,0.08l0.186,0.08l0.196,0.085l0.189,0.085l0.186,0.084l0.194,0.089l0.189,0.089l0.189,0.09l0.188,0.091l0.188,0.093l0.191,0.096l0.182,0.092l0.188,0.097l0.191,0.101l0.186,0.099l0.184,0.1l0.186,0.102l0.185,0.104l0.184,0.104l0.188,0.108l0.183,0.107l0.183,0.108l0.187,0.113l0.182,0.111l0.181,0.112l0.181,0.113l0.185,0.117l0.18,0.116l0.18,0.118l0.184,0.122l0.178,0.119l0.183,0.124l0.178,0.123l0.176,0.122l0.18,0.128l0.177,0.127l0.181,0.131l0.174,0.127l0.174,0.13l0.183,0.138l0.174,0.132l0.173,0.134l0.176,0.137l0.172,0.136l0.176,0.14l0.175,0.143l0.171,0.139l0.169,0.14l0.173,0.146l0.173,0.146l0.173,0.149l0.172,0.149l0.166,0.146l0.167,0.148l0.17,0.153l0.17,0.154l0.168,0.155l0.169,0.157l0.164,0.153l0.167,0.159l0.167,0.16l0.166,0.161l0.166,0.163l0.16,0.159l0.165,0.165l0.164,0.167l0.164,0.167l0.162,0.168l0.158,0.165l0.162,0.171l0.165,0.176l0.161,0.174l0.156,0.17l0.159,0.175l0.163,0.181l0.12,0.135l0.055,-0.021l0.231,-0.084l0.232,-0.082l0.225,-0.078l0.233,-0.078l0.233,-0.075l0.23,-0.073l0.23,-0.07l0.232,-0.068l0.232,-0.066l0.231,-0.064l0.233,-0.061l0.234,-0.06l0.233,-0.057l0.23,-0.055l0.235,-0.053l0.234,-0.051l0.233,-0.048l0.233,-0.047l0.233,-0.044l0.235,-0.042l0.233,-0.04l0.233,-0.038l0.236,-0.036l0.234,-0.033l0.233,-0.032l0.234,-0.029l0.232,-0.027l0.234,-0.025l0.235,-0.023l0.234,-0.021l0.233,-0.019l0.233,-0.017l0.233,-0.015l0.233,-0.013l0.234,-0.01l0.232,-0.009l0.233,-0.006l0.232,-0.005l0.233,-0.003l0.232,0l0.233,0.002l0.231,0.003l0.23,0.006l0.231,0.007l0.231,0.01l0.231,0.011l0.231,0.014l0.229,0.015l0.23,0.018l0.231,0.019l0.228,0.022l0.228,0.023l0.228,0.025l0.228,0.027l0.227,0.03l0.227,0.031l0.229,0.033l0.225,0.035l0.225,0.037l0.227,0.039l0.226,0.041l0.223,0.042l0.223,0.045l0.225,0.047l0.224,0.049l0.222,0.05l0.221,0.052l0.223,0.054l0.221,0.056l0.218,0.058l0.222,0.06l0.219,0.062l0.218,0.064l0.219,0.065l0.219,0.068l0.218,0.07l0.215,0.071l0.213,0.072l0.218,0.076l0.216,0.078l0.213,0.078l0.211,0.08l0.213,0.083l0.214,0.085l0.209,0.086l0.211,0.089l0.21,0.09l0.209,0.092l0.209,0.095l0.208,0.096l0.206,0.097l0.209,0.101l0.204,0.102l0.199,0.101l0.206,0.106l0.206,0.109l0.199,0.108l0.197,0.11l0.204,0.115l0.2,0.115l0.194,0.115l0.198,0.119l0.197,0.121l0.197,0.124l0.194,0.124l0.187,0.123l0.197,0.131l0.195,0.133l0.185,0.128l0.187,0.133l0.191,0.138l0.185,0.137l0.189,0.142l0.187,0.143l0.18,0.142l0.178,0.142l0.182,0.148l0.187,0.156l0.174,0.147l0.172,0.148l0.182,0.161l0.174,0.157l0.173,0.158l0.171,0.16l0.169,0.162l0.174,0.169l0.165,0.164l0.164,0.167l0.168,0.173l0.165,0.175l0.159,0.171l0.162,0.178l0.154,0.173l0.159,0.182l0.156,0.183l0.155,0.184l0.152,0.186l0.15,0.187l0.153,0.195l0.141,0.183l0.144,0.191l0.147,0.2l0.14,0.194l0.137,0.195l0.141,0.204l0.138,0.206l0.13,0.198l0.134,0.208l0.131,0.21l0.124,0.203l0.127,0.211l0.124,0.213l0.122,0.214l0.119,0.215l0.121,0.225l0.115,0.218l0.107,0.21l0.114,0.228l0.111,0.229l0.104,0.221l0.102,0.223l0.103,0.232l0.101,0.233l0.094,0.225l0.091,0.226l0.093,0.236l0.094,0.246l0.086,0.237l0.081,0.228l0.082,0.239l0.082,0.25l0.076,0.24l0.074,0.241l0.073,0.251l0.067,0.241l0.066,0.243l0.062,0.242l0.062,0.253l0.007,0.031l0.201,0.116l0.239,0.142l0.236,0.144l0.238,0.149l0.236,0.152l0.228,0.151l0.226,0.153l0.228,0.158l0.221,0.156l0.223,0.163l0.221,0.164l0.213,0.162l0.215,0.168l0.212,0.169l0.211,0.172l0.208,0.173l0.205,0.175l0.203,0.176l0.2,0.178l0.198,0.179l0.195,0.181l0.193,0.182l0.195,0.188l0.193,0.19l0.185,0.186l0.183,0.188l0.181,0.188l0.183,0.196l0.181,0.196l0.178,0.197l0.175,0.199l0.169,0.195l0.172,0.201l0.168,0.202l0.166,0.203l0.164,0.204l0.162,0.206l0.16,0.207l0.157,0.207l0.154,0.207l0.153,0.209l0.155,0.217l0.152,0.217l0.146,0.212l0.144,0.212l0.146,0.22l0.142,0.22l0.137,0.215l0.135,0.216l0.137,0.223l0.138,0.23l0.132,0.225l0.126,0.218l0.128,0.226l0.125,0.227l0.124,0.227l0.121,0.228l0.119,0.228l0.117,0.23l0.118,0.237l0.112,0.23l0.111,0.231l0.111,0.238l0.11,0.24l0.103,0.233l0.102,0.232l0.103,0.242l0.1,0.242l0.098,0.242l0.093,0.235l0.094,0.243l0.092,0.243l0.09,0.245l0.087,0.244l0.085,0.245l0.086,0.253l0.08,0.246l0.076,0.239l0.079,0.254l0.076,0.255l0.07,0.24l0.072,0.256l0.069,0.256l0.066,0.248l0.063,0.249l0.063,0.258l0.06,0.257l0.058,0.258l0.056,0.259l0.052,0.25l0.051,0.259l0.049,0.259l0.046,0.259l0.046,0.269l0.041,0.259l0.039,0.252l0.038,0.269l0.035,0.261l0.032,0.26l0.031,0.27l0.027,0.261l0.026,0.27l0.022,0.261l0.021,0.262l0.019,0.279l0.015,0.27l0.013,0.262l0.01,0.262l0.008,0.271l0.006,0.279l0.002,0.271l0,0.262l-0.002,0.271l-0.006,0.28l-0.008,0.271l-0.011,0.27l-0.013,0.271l-0.016,0.271l-0.02,0.279l-0.022,0.279l-0.025,0.271l-0.027,0.27l-0.031,0.278l-0.034,0.279l-0.036,0.27l-0.04,0.278l-0.043,0.277l-0.046,0.278l-0.049,0.277l-0.051,0.268l-0.056,0.285l-0.059,0.275l-0.059,0.267l-0.066,0.283l-0.07,0.283l-0.069,0.266l-0.073,0.273l-0.08,0.281l-0.082,0.28l-0.087,0.279l-0.087,0.271l-0.09,0.27l-0.093,0.269l-0.099,0.276l-0.106,0.283l-0.103,0.266l-0.109,0.274l-0.114,0.272l-0.116,0.27l-0.12,0.27l-0.119,0.262l-0.131,0.275l-0.133,0.273l-0.134,0.264l-0.133,0.256l-0.144,0.269l-0.148,0.268l-0.148,0.259l-0.151,0.257l-0.154,0.256l-0.165,0.267l-0.166,0.258l-0.16,0.245l-0.172,0.254l-0.18,0.259l-0.175,0.246l-0.182,0.248l-0.185,0.246l-0.189,0.245l-0.198,0.248l-0.191,0.234l-0.199,0.238l-0.207,0.24l-0.206,0.233l-0.209,0.231l-0.216,0.232l-0.216,0.226l-0.219,0.223l-0.23,0.228l-0.225,0.217l-0.228,0.216l-0.235,0.216l-0.238,0.213l-0.241,0.21l-0.241,0.204l-0.247,0.204l-0.253,0.205l-0.253,0.198l-0.252,0.192l-0.258,0.193l-0.265,0.192l-0.263,0.186l-0.267,0.184l-0.273,0.182l-0.27,0.176l-0.275,0.174l-0.28,0.173l-0.283,0.169l-0.282,0.164l-0.286,0.163l-0.29,0.159l-0.288,0.155l-0.295,0.153l-0.297,0.15l-0.298,0.146l-0.298,0.142l-0.303,0.14l-0.308,0.137l-0.307,0.134l-0.31,0.13l-0.313,0.127l-0.313,0.124l-0.314,0.119l-0.32,0.118l-0.321,0.115l-0.321,0.11l-0.326,0.108l-0.327,0.105l-0.328,0.101l-0.331,0.099l-0.334,0.095l-0.333,0.091l-0.336,0.089l-0.339,0.086l-0.34,0.082l-0.295,0.069l-0.558,0.112l-0.563,0.081l-0.567,0.048l-0.568,0.016l-72.825,0l-0.614,-0.019l-0.612,-0.056l-0.607,-0.094l-0.601,-0.131l-0.285,-0.072l-0.335,-0.088l-0.337,-0.093l-0.333,-0.096l-0.331,-0.1l-0.33,-0.103l-0.326,-0.107l-0.325,-0.111l-0.324,-0.114l-0.323,-0.119l-0.318,-0.121l-0.315,-0.125l-0.314,-0.129l-0.311,-0.132l-0.312,-0.137l-0.307,-0.139l-0.304,-0.142l-0.305,-0.148l-0.301,-0.15l-0.293,-0.152l-0.295,-0.156l-0.295,-0.162l-0.29,-0.164l-0.287,-0.167l-0.281,-0.168l-0.282,-0.174l-0.282,-0.179l-0.273,-0.178l-0.273,-0.183l-0.27,-0.186l-0.264,-0.188l-0.266,-0.193l-0.261,-0.196l-0.259,-0.198l-0.252,-0.2l-0.253,-0.204l-0.249,-0.208l-0.239,-0.204l-0.244,-0.214l-0.241,-0.216l-0.233,-0.215l-0.234,-0.221l-0.227,-0.221l-0.223,-0.222l-0.225,-0.23l-0.217,-0.227l-0.213,-0.23l-0.215,-0.237l-0.207,-0.234l-0.204,-0.237l-0.2,-0.238l-0.197,-0.24l-0.194,-0.243l-0.191,-0.245l-0.19,-0.251l-0.184,-0.249l-0.176,-0.245l-0.177,-0.251l-0.173,-0.254l-0.171,-0.255l-0.166,-0.257l-0.16,-0.252l-0.16,-0.26l-0.157,-0.262l-0.153,-0.263l-0.15,-0.264l-0.142,-0.259l-0.141,-0.26l-0.14,-0.268l-0.136,-0.27l-0.13,-0.263l-0.13,-0.272l-0.127,-0.273l-0.12,-0.266l-0.117,-0.268l-0.114,-0.269l-0.114,-0.277l-0.108,-0.27l-0.104,-0.271l-0.105,-0.279l-0.098,-0.273l-0.095,-0.273l-0.092,-0.274l-0.092,-0.283l-0.085,-0.275l-0.081,-0.268l-0.083,-0.285l-0.076,-0.277l-0.072,-0.269l-0.072,-0.278l-0.07,-0.287l-0.064,-0.279l-0.061,-0.271l-0.059,-0.28l-0.057,-0.28l-0.053,-0.281l-0.049,-0.273l-0.048,-0.281l-0.045,-0.281l-0.041,-0.274l-0.039,-0.282l-0.036,-0.274l-0.034,-0.282l-0.03,-0.283l-0.028,-0.275l-0.025,-0.283l-0.022,-0.274l-0.02,-0.275l-0.017,-0.284l-0.014,-0.275l-0.011,-0.275l-0.009,-0.284l-0.006,-0.275l-0.004,-0.275l-0.001,-0.276l0.001,-0.275l0.005,-0.284l0.007,-0.275l0.009,-0.275l0.012,-0.275l0.014,-0.275l0.018,-0.275l0.019,-0.267l0.021,-0.275l0.026,-0.283l0.027,-0.274l0.029,-0.266l0.032,-0.274l0.035,-0.274l0.037,-0.266l0.04,-0.274l0.042,-0.273l0.044,-0.265l0.047,-0.273l0.051,-0.273l0.051,-0.264l0.053,-0.264l0.058,-0.272l0.06,-0.271l0.061,-0.263l0.064,-0.263l0.068,-0.27l0.068,-0.262l0.071,-0.262l0.076,-0.269l0.076,-0.261l0.079,-0.26l0.081,-0.26l0.086,-0.267l0.087,-0.259l0.086,-0.251l0.094,-0.266l0.094,-0.258l0.094,-0.249l0.101,-0.264l0.103,-0.256l0.101,-0.248l0.107,-0.254l0.109,-0.254l0.113,-0.254l0.115,-0.252l0.118,-0.252l0.117,-0.244l0.122,-0.251l0.127,-0.25l0.125,-0.241l0.131,-0.248l0.13,-0.24l0.137,-0.247l0.14,-0.245l0.139,-0.238l0.141,-0.237l0.144,-0.235l0.151,-0.242l0.154,-0.24l0.153,-0.232l0.156,-0.233l0.158,-0.231l0.165,-0.234l0.165,-0.229l0.167,-0.227l0.17,-0.226l0.173,-0.224l0.181,-0.229l0.175,-0.217l0.181,-0.219l0.19,-0.225l0.184,-0.212l0.19,-0.215l0.2,-0.22l0.193,-0.207l0.195,-0.206l0.203,-0.209l0.211,-0.211l0.21,-0.206l0.208,-0.199l0.211,-0.196l0.218,-0.199l0.223,-0.198l0.22,-0.19l0.228,-0.192l0.232,-0.191l0.229,-0.183l0.233,-0.182l0.241,-0.183l0.243,-0.18l0.238,-0.171l0.249,-0.175l0.253,-0.172l0.247,-0.163l0.258,-0.166l0.259,-0.161l0.259,-0.157l0.267,-0.157l0.266,-0.151l0.265,-0.146l0.272,-0.145l0.279,-0.143l0.276,-0.138l0.207,-0.1l0.037,-0.269l0.048,-0.328l0.055,-0.342l0.059,-0.333l0.061,-0.326l0.066,-0.333l0.07,-0.325l0.073,-0.324l0.079,-0.33l0.083,-0.329l0.086,-0.322l0.087,-0.315l0.092,-0.32l0.097,-0.319l0.101,-0.319l0.104,-0.318l0.106,-0.31l0.109,-0.31l0.113,-0.308l0.117,-0.308l0.122,-0.313l0.124,-0.307l0.124,-0.299l0.129,-0.299l0.133,-0.303l0.137,-0.302l0.138,-0.295l0.144,-0.301l0.145,-0.294l0.145,-0.287l0.15,-0.292l0.157,-0.296l0.155,-0.284l0.158,-0.284l0.163,-0.287l0.167,-0.287l0.168,-0.28l0.167,-0.275l0.176,-0.283l0.176,-0.277l0.176,-0.271l0.182,-0.275l0.186,-0.273l0.188,-0.273l0.188,-0.267l0.191,-0.265l0.195,-0.265l0.196,-0.262l0.2,-0.263l0.203,-0.26l0.205,-0.259l0.206,-0.254l0.208,-0.253l0.214,-0.255l0.217,-0.254l0.217,-0.248l0.217,-0.244l0.221,-0.245l0.229,-0.248l0.225,-0.239l0.231,-0.241l0.233,-0.24l0.23,-0.231l0.239,-0.236l0.239,-0.232l0.241,-0.23l0.248,-0.231l0.243,-0.223l0.246,-0.222l0.253,-0.223l0.255,-0.221l0.257,-0.219l0.258,-0.215l0.256,-0.209l0.266,-0.214l0.266,-0.209l0.267,-0.206l0.271,-0.205l0.27,-0.201l0.276,-0.2l0.276,-0.196l0.277,-0.194l0.284,-0.194l0.284,-0.19l0.283,-0.185l0.289,-0.185l0.293,-0.184l0.292,-0.179l0.293,-0.176l0.299,-0.175l0.302,-0.173l0.301,-0.168l0.301,-0.164l0.309,-0.164l0.309,-0.16l0.309,-0.157l0.314,-0.154l0.313,-0.151l0.319,-0.149l0.321,-0.145l0.319,-0.141l0.326,-0.14l0.326,-0.135l0.326,-0.131l0.333,-0.13l0.331,-0.125l0.333,-0.121l0.338,-0.119l0.34,-0.116l0.34,-0.111l0.342,-0.107l0.345,-0.105l0.346,-0.1l0.349,-0.096l0.35,-0.093l0.353,-0.089l0.354,-0.084l0.355,-0.081l0.359,-0.077l0.361,-0.072l0.344,-0.065l0.197,-0.036l0.183,-0.032l0.181,-0.03l0.184,-0.029l0.18,-0.028l0.185,-0.028l0.187,-0.026l0.182,-0.025l0.183,-0.023l0.184,-0.023l0.187,-0.022l0.188,-0.021l0.184,-0.019l0.186,-0.018l0.187,-0.017l0.187,-0.016l0.187,-0.015l0.189,-0.013l0.187,-0.013l0.189,-0.011l0.19,-0.01l0.187,-0.008l0.19,-0.008l0.191,-0.007l0.189,-0.005l0.19,-0.004l0.19,-0.002l0.19,-0.002l0.194,0l0.189,0.001Zm-0.337,9.999l-0.126,0.001l-0.125,0.002l-0.126,0.003l-0.125,0.003l-0.126,0.004l-0.125,0.005l-0.125,0.006l-0.125,0.007l-0.124,0.007l-0.125,0.008l-0.124,0.009l-0.125,0.01l-0.124,0.01l-0.124,0.012l-0.123,0.012l-0.124,0.013l-0.123,0.013l-0.124,0.015l-0.123,0.015l-0.123,0.016l-0.122,0.016l-0.123,0.018l-0.122,0.018l-0.123,0.019l-0.122,0.019l-0.121,0.021l-0.122,0.021l-0.122,0.022l-0.242,0.045l-0.241,0.049l-0.241,0.052l-0.24,0.054l-0.239,0.057l-0.239,0.06l-0.237,0.063l-0.236,0.065l-0.236,0.069l-0.235,0.07l-0.233,0.074l-0.233,0.076l-0.232,0.079l-0.231,0.081l-0.23,0.084l-0.228,0.086l-0.228,0.089l-0.227,0.091l-0.226,0.094l-0.224,0.096l-0.224,0.099l-0.222,0.101l-0.221,0.103l-0.22,0.105l-0.219,0.108l-0.218,0.11l-0.216,0.113l-0.216,0.114l-0.214,0.117l-0.212,0.119l-0.212,0.121l-0.21,0.123l-0.209,0.125l-0.207,0.127l-0.207,0.129l-0.204,0.132l-0.204,0.133l-0.202,0.135l-0.201,0.137l-0.199,0.139l-0.198,0.141l-0.196,0.143l-0.195,0.144l-0.193,0.147l-0.192,0.148l-0.191,0.15l-0.189,0.151l-0.187,0.153l-0.185,0.155l-0.185,0.157l-0.182,0.158l-0.181,0.16l-0.179,0.161l-0.178,0.163l-0.175,0.164l-0.175,0.166l-0.172,0.167l-0.171,0.169l-0.169,0.17l-0.167,0.172l-0.165,0.172l-0.164,0.175l-0.162,0.175l-0.16,0.177l-0.158,0.178l-0.156,0.179l-0.155,0.18l-0.152,0.182l-0.151,0.183l-0.148,0.184l-0.147,0.185l-0.145,0.186l-0.143,0.187l-0.14,0.188l-0.139,0.189l-0.137,0.19l-0.135,0.191l-0.132,0.192l-0.131,0.192l-0.128,0.194l-0.126,0.194l-0.125,0.196l-0.122,0.196l-0.119,0.196l-0.118,0.198l-0.115,0.198l-0.114,0.199l-0.111,0.2l-0.108,0.2l-0.107,0.2l-0.104,0.202l-0.102,0.202l-0.1,0.202l-0.097,0.203l-0.095,0.203l-0.092,0.204l-0.09,0.205l-0.088,0.204l-0.085,0.205l-0.083,0.206l-0.081,0.205l-0.078,0.206l-0.075,0.206l-0.073,0.207l-0.07,0.206l-0.068,0.207l-0.066,0.207l-0.062,0.208l-0.061,0.207l-0.057,0.207l-0.055,0.207l-0.052,0.208l-0.05,0.207l-0.047,0.208l-0.044,0.207l-0.042,0.207l-0.039,0.208l-0.036,0.207l-0.033,0.207l-0.031,0.206l-0.027,0.207l-0.025,0.206l-0.022,0.206l-0.02,0.206l-0.016,0.205l-0.014,0.205l-0.01,0.205l-0.008,0.205l-0.005,0.203l-0.002,0.204l0.001,0.203l0.004,0.203l0.003,0.101l0.004,0.101l0.005,0.101l0.005,0.1l0.007,0.101l0.007,0.1l0.007,0.1l0.009,0.101l0.009,0.099l0.01,0.1l0.011,0.1l0.011,0.099l0.012,0.1l0.014,0.099l0.013,0.099l0.015,0.099l0.015,0.098l0.017,0.099l0.017,0.098l0.017,0.098l0.019,0.098l0.019,0.097l0.02,0.098l0.021,0.097l0.022,0.097l0.023,0.097l0.023,0.096l0.024,0.097l0.025,0.096l0.026,0.096l0.027,0.096l0.027,0.095l0.028,0.095l0.029,0.096l0.03,0.094l0.031,0.095l0.031,0.094l0.033,0.094l0.033,0.094l0.034,0.094l0.035,0.093l0.035,0.093l0.037,0.093l0.037,0.092l-0.195,-0.012l-0.194,-0.01l-0.194,-0.007l-0.192,-0.005l-0.191,-0.002l-0.19,0.001l-0.189,0.004l-0.188,0.006l-0.186,0.009l-0.186,0.011l-0.184,0.014l-0.184,0.017l-0.182,0.019l-0.181,0.022l-0.18,0.024l-0.179,0.026l-0.178,0.029l-0.177,0.032l-0.175,0.034l-0.175,0.036l-0.173,0.039l-0.172,0.041l-0.171,0.043l-0.17,0.046l-0.168,0.048l-0.167,0.05l-0.167,0.053l-0.165,0.055l-0.164,0.057l-0.162,0.059l-0.162,0.061l-0.16,0.064l-0.159,0.065l-0.158,0.068l-0.156,0.07l-0.156,0.072l-0.154,0.074l-0.153,0.076l-0.152,0.079l-0.15,0.08l-0.149,0.082l-0.148,0.084l-0.147,0.086l-0.146,0.088l-0.144,0.09l-0.143,0.092l-0.141,0.094l-0.141,0.095l-0.139,0.097l-0.138,0.1l-0.136,0.101l-0.135,0.102l-0.134,0.105l-0.133,0.106l-0.131,0.108l-0.13,0.11l-0.129,0.111l-0.127,0.113l-0.126,0.115l-0.125,0.116l-0.123,0.118l-0.122,0.119l-0.121,0.121l-0.119,0.123l-0.118,0.124l-0.117,0.125l-0.115,0.127l-0.114,0.129l-0.112,0.13l-0.111,0.131l-0.11,0.133l-0.108,0.134l-0.107,0.136l-0.106,0.136l-0.104,0.139l-0.103,0.139l-0.101,0.141l-0.1,0.142l-0.098,0.143l-0.097,0.145l-0.096,0.146l-0.094,0.146l-0.093,0.149l-0.091,0.149l-0.09,0.15l-0.088,0.152l-0.087,0.152l-0.086,0.154l-0.084,0.155l-0.082,0.155l-0.081,0.157l-0.08,0.158l-0.078,0.159l-0.076,0.159l-0.075,0.161l-0.074,0.161l-0.072,0.163l-0.07,0.163l-0.069,0.164l-0.068,0.165l-0.066,0.166l-0.064,0.167l-0.063,0.167l-0.062,0.168l-0.059,0.169l-0.059,0.17l-0.056,0.17l-0.055,0.171l-0.054,0.172l-0.052,0.172l-0.051,0.173l-0.048,0.174l-0.048,0.174l-0.045,0.174l-0.044,0.176l-0.043,0.175l-0.041,0.177l-0.039,0.177l-0.038,0.177l-0.036,0.177l-0.034,0.179l-0.033,0.178l-0.031,0.179l-0.03,0.179l-0.028,0.18l-0.026,0.18l-0.025,0.18l-0.023,0.181l-0.021,0.181l-0.02,0.181l-0.018,0.181l-0.016,0.182l-0.015,0.181l-0.013,0.182l-0.011,0.182l-0.01,0.183l-0.007,0.182l-0.007,0.182l-0.004,0.183l-0.003,0.182l-0.001,0.183l0.001,0.183l0.002,0.182l0.004,0.183l0.006,0.182l0.008,0.183l0.009,0.182l0.011,0.183l0.013,0.182l0.014,0.182l0.017,0.182l0.018,0.182l0.02,0.181l0.021,0.181l0.024,0.182l0.025,0.18l0.027,0.181l0.029,0.18l0.03,0.18l0.033,0.18l0.034,0.179l0.036,0.179l0.038,0.179l0.039,0.178l0.042,0.177l0.043,0.178l0.045,0.177l0.047,0.176l0.049,0.176l0.051,0.175l0.052,0.175l0.055,0.174l0.056,0.173l0.058,0.173l0.06,0.173l0.062,0.171l0.064,0.171l0.066,0.171l0.067,0.169l0.07,0.169l0.071,0.168l0.073,0.168l0.075,0.166l0.077,0.166l0.079,0.165l0.081,0.165l0.083,0.163l0.085,0.162l0.087,0.162l0.088,0.161l0.091,0.159l0.093,0.159l0.094,0.158l0.097,0.157l0.098,0.155l0.101,0.155l0.102,0.154l0.104,0.152l0.107,0.152l0.108,0.15l0.111,0.15l0.112,0.148l0.114,0.147l0.117,0.145l0.118,0.145l0.121,0.143l0.122,0.142l0.125,0.141l0.126,0.14l0.129,0.138l0.13,0.137l0.133,0.135l0.135,0.135l0.136,0.132l0.139,0.132l0.141,0.13l0.143,0.128l0.145,0.127l0.147,0.126l0.149,0.124l0.152,0.123l0.153,0.121l0.155,0.119l0.158,0.118l0.16,0.116l0.161,0.115l0.164,0.113l0.166,0.111l0.169,0.11l0.17,0.108l0.172,0.106l0.175,0.105l0.177,0.103l0.179,0.101l0.181,0.099l0.183,0.098l0.185,0.095l0.188,0.094l0.189,0.092l0.192,0.09l0.194,0.088l0.197,0.086l0.198,0.084l0.201,0.082l0.202,0.081l0.206,0.078l0.207,0.076l0.209,0.074l0.212,0.072l0.214,0.07l0.216,0.068l0.218,0.066l0.221,0.063l0.223,0.062l0.225,0.059l0.227,0.057l72.826,0l0.246,-0.057l0.243,-0.059l0.241,-0.06l0.238,-0.063l0.235,-0.065l0.233,-0.066l0.23,-0.069l0.228,-0.07l0.225,-0.072l0.223,-0.074l0.22,-0.076l0.217,-0.077l0.215,-0.079l0.213,-0.081l0.21,-0.083l0.207,-0.085l0.205,-0.086l0.203,-0.088l0.2,-0.089l0.197,-0.091l0.195,-0.093l0.193,-0.095l0.19,-0.096l0.188,-0.097l0.185,-0.1l0.183,-0.1l0.181,-0.103l0.178,-0.103l0.176,-0.106l0.173,-0.107l0.171,-0.108l0.168,-0.11l0.167,-0.111l0.163,-0.112l0.162,-0.114l0.159,-0.116l0.157,-0.117l0.154,-0.118l0.153,-0.119l0.149,-0.121l0.148,-0.122l0.145,-0.124l0.143,-0.124l0.141,-0.126l0.138,-0.127l0.137,-0.129l0.134,-0.129l0.131,-0.131l0.13,-0.132l0.127,-0.133l0.125,-0.134l0.123,-0.136l0.121,-0.136l0.118,-0.138l0.116,-0.139l0.114,-0.139l0.112,-0.141l0.11,-0.142l0.108,-0.143l0.105,-0.143l0.103,-0.145l0.102,-0.146l0.099,-0.147l0.097,-0.147l0.094,-0.149l0.093,-0.149l0.091,-0.15l0.088,-0.152l0.087,-0.152l0.084,-0.152l0.083,-0.154l0.08,-0.155l0.078,-0.155l0.077,-0.156l0.074,-0.156l0.072,-0.158l0.07,-0.158l0.069,-0.159l0.066,-0.159l0.064,-0.161l0.062,-0.16l0.061,-0.162l0.058,-0.162l0.056,-0.163l0.055,-0.163l0.052,-0.164l0.051,-0.164l0.049,-0.165l0.046,-0.166l0.045,-0.166l0.043,-0.166l0.041,-0.167l0.04,-0.167l0.037,-0.168l0.036,-0.168l0.033,-0.169l0.032,-0.169l0.03,-0.169l0.028,-0.17l0.026,-0.17l0.025,-0.17l0.023,-0.17l0.02,-0.171l0.02,-0.172l0.017,-0.171l0.015,-0.172l0.014,-0.171l0.012,-0.173l0.011,-0.172l0.008,-0.172l0.007,-0.173l0.005,-0.172l0.003,-0.173l0.002,-0.173l0,-0.173l-0.002,-0.173l-0.003,-0.173l-0.005,-0.174l-0.007,-0.173l-0.008,-0.173l-0.01,-0.173l-0.012,-0.173l-0.013,-0.173l-0.015,-0.173l-0.017,-0.173l-0.018,-0.173l-0.02,-0.173l-0.021,-0.173l-0.023,-0.172l-0.024,-0.172l-0.027,-0.173l-0.027,-0.171l-0.029,-0.172l-0.031,-0.172l-0.032,-0.171l-0.034,-0.171l-0.036,-0.171l-0.036,-0.17l-0.039,-0.17l-0.04,-0.17l-0.041,-0.169l-0.043,-0.17l-0.044,-0.168l-0.046,-0.169l-0.047,-0.167l-0.049,-0.168l-0.05,-0.167l-0.051,-0.166l-0.053,-0.167l-0.054,-0.165l-0.056,-0.165l-0.057,-0.165l-0.059,-0.164l-0.06,-0.163l-0.061,-0.163l-0.063,-0.163l-0.064,-0.161l-0.065,-0.161l-0.067,-0.161l-0.068,-0.159l-0.069,-0.16l-0.071,-0.158l-0.072,-0.158l-0.073,-0.157l-0.075,-0.156l-0.076,-0.155l-0.077,-0.155l-0.078,-0.154l-0.08,-0.153l-0.081,-0.152l-0.082,-0.152l-0.084,-0.15l-0.084,-0.15l-0.086,-0.149l-0.087,-0.148l-0.088,-0.147l-0.09,-0.146l-0.091,-0.145l-0.091,-0.144l-0.093,-0.143l-0.095,-0.142l-0.095,-0.142l-0.096,-0.14l-0.098,-0.139l-0.099,-0.138l-0.1,-0.137l-0.101,-0.135l-0.102,-0.135l-0.103,-0.134l-0.104,-0.132l-0.106,-0.131l-0.106,-0.13l-0.108,-0.129l-0.108,-0.127l-0.11,-0.127l-0.11,-0.125l-0.112,-0.124l-0.113,-0.122l-0.113,-0.122l-0.115,-0.119l-0.116,-0.119l-0.117,-0.117l-0.117,-0.116l-0.119,-0.115l-0.12,-0.113l-0.12,-0.111l-0.122,-0.111l-0.122,-0.109l-0.124,-0.107l-0.124,-0.106l-0.126,-0.104l-0.126,-0.103l-0.127,-0.101l-0.128,-0.1l-0.129,-0.098l-0.13,-0.097l-0.13,-0.095l-0.132,-0.093l-0.132,-0.092l-0.133,-0.09l-0.134,-0.088l-0.135,-0.087l-0.136,-0.085l-0.136,-0.084l-0.138,-0.081l-0.138,-0.08l-0.139,-0.078l-0.139,-0.076l-0.141,-0.075l-0.141,-0.073l-0.142,-0.071l-0.143,-0.069l-0.143,-0.067l-0.145,-0.065l-0.144,-0.064l-0.146,-0.061l-0.146,-0.06l-0.148,-0.057l-0.147,-0.056l-0.149,-0.054l-0.149,-0.051l-0.15,-0.05l-0.15,-0.048l-0.151,-0.045l-0.152,-0.044l-0.152,-0.041l-0.153,-0.039l-0.154,-0.038l-0.154,-0.035l-0.155,-0.033l-0.155,-0.031l-0.156,-0.028l-0.157,-0.027l-0.157,-0.024l-0.158,-0.022l-0.158,-0.02l0.018,-0.163l0.016,-0.162l0.014,-0.162l0.012,-0.16l0.011,-0.161l0.009,-0.159l0.007,-0.159l0.006,-0.158l0.004,-0.158l0.002,-0.157l0,-0.156l-0.001,-0.155l-0.003,-0.155l-0.005,-0.154l-0.006,-0.153l-0.008,-0.153l-0.009,-0.152l-0.011,-0.151l-0.013,-0.151l-0.014,-0.149l-0.016,-0.149l-0.018,-0.149l-0.019,-0.147l-0.02,-0.147l-0.023,-0.146l-0.023,-0.146l-0.025,-0.144l-0.027,-0.144l-0.029,-0.143l-0.029,-0.142l-0.032,-0.142l-0.032,-0.141l-0.035,-0.14l-0.035,-0.139l-0.038,-0.139l-0.038,-0.137l-0.04,-0.137l-0.042,-0.136l-0.043,-0.136l-0.044,-0.134l-0.046,-0.134l-0.047,-0.133l-0.048,-0.132l-0.05,-0.131l-0.051,-0.131l-0.053,-0.13l-0.054,-0.128l-0.055,-0.128l-0.057,-0.128l-0.057,-0.126l-0.06,-0.126l-0.06,-0.124l-0.062,-0.124l-0.063,-0.123l-0.064,-0.123l-0.066,-0.121l-0.066,-0.12l-0.068,-0.12l-0.07,-0.119l-0.07,-0.118l-0.072,-0.117l-0.072,-0.116l-0.074,-0.115l-0.076,-0.115l-0.076,-0.113l-0.078,-0.113l-0.078,-0.111l-0.08,-0.111l-0.081,-0.11l-0.082,-0.109l-0.083,-0.108l-0.084,-0.108l-0.086,-0.106l-0.086,-0.105l-0.088,-0.105l-0.088,-0.104l-0.09,-0.102l-0.09,-0.102l-0.092,-0.101l-0.093,-0.099l-0.094,-0.099l-0.094,-0.098l-0.096,-0.097l-0.097,-0.096l-0.097,-0.096l-0.099,-0.094l-0.099,-0.093l-0.101,-0.092l-0.101,-0.091l-0.103,-0.091l-0.103,-0.089l-0.104,-0.088l-0.105,-0.088l-0.106,-0.086l-0.107,-0.085l-0.108,-0.085l-0.108,-0.083l-0.11,-0.082l-0.11,-0.082l-0.111,-0.08l-0.112,-0.079l-0.113,-0.079l-0.113,-0.077l-0.114,-0.076l-0.115,-0.076l-0.116,-0.074l-0.117,-0.073l-0.117,-0.072l-0.118,-0.071l-0.119,-0.07l-0.12,-0.069l-0.12,-0.068l-0.121,-0.067l-0.122,-0.066l-0.122,-0.065l-0.123,-0.064l-0.123,-0.063l-0.125,-0.061l-0.125,-0.061l-0.125,-0.059l-0.127,-0.058l-0.126,-0.058l-0.128,-0.056l-0.128,-0.055l-0.128,-0.054l-0.13,-0.053l-0.129,-0.052l-0.131,-0.05l-0.13,-0.05l-0.132,-0.048l-0.132,-0.048l-0.132,-0.046l-0.133,-0.045l-0.134,-0.044l-0.134,-0.043l-0.134,-0.042l-0.135,-0.04l-0.135,-0.04l-0.136,-0.038l-0.136,-0.037l-0.137,-0.036l-0.137,-0.035l-0.137,-0.033l-0.138,-0.033l-0.138,-0.031l-0.139,-0.03l-0.139,-0.029l-0.14,-0.028l-0.139,-0.027l-0.14,-0.025l-0.141,-0.024l-0.141,-0.023l-0.141,-0.022l-0.141,-0.021l-0.142,-0.019l-0.142,-0.018l-0.142,-0.018l-0.142,-0.015l-0.143,-0.015l-0.143,-0.013l-0.143,-0.012l-0.144,-0.011l-0.143,-0.01l-0.144,-0.008l-0.144,-0.008l-0.145,-0.006l-0.144,-0.004l-0.145,-0.004l-0.144,-0.002l-0.145,-0.001l-0.145,0l-0.146,0.002l-0.145,0.003l-0.145,0.004l-0.146,0.005l-0.146,0.007l-0.145,0.008l-0.146,0.009l-0.146,0.011l-0.146,0.011l-0.146,0.014l-0.146,0.014l-0.146,0.016l-0.146,0.017l-0.146,0.018l-0.146,0.02l-0.146,0.021l-0.146,0.022l-0.146,0.024l-0.145,0.024l-0.146,0.027l-0.146,0.027l-0.146,0.029l-0.145,0.031l-0.146,0.031l-0.145,0.033l-0.146,0.035l-0.145,0.035l-0.145,0.037l-0.145,0.039l-0.145,0.039l-0.144,0.042l-0.145,0.042l-0.144,0.044l-0.144,0.045l-0.144,0.047l-0.143,0.048l-0.144,0.05l-0.143,0.05l-0.143,0.053l-0.143,0.053l-0.142,0.055l-0.142,0.057l-0.142,0.058l-0.142,0.059l-0.141,0.061l-0.141,0.062l-0.141,0.063l-0.141,0.065l-0.14,0.067l-0.139,0.068l-0.14,0.069l-0.139,0.071l-0.138,0.072l-0.139,0.074l-0.138,0.075l-0.137,0.076l-0.137,0.078l-0.137,0.08l-0.136,0.081l-0.136,0.082l-0.135,0.084l-0.135,0.086l-0.134,0.087l-0.134,0.088l-0.133,0.09l-0.133,0.091l-0.133,0.093l-0.132,0.095l-0.131,0.095l-0.131,0.098l-0.13,0.099l-0.13,0.1l-0.129,0.102l-0.129,0.104l-0.127,0.105l-0.128,0.106l-0.127,0.108l-0.126,0.11l-0.125,0.111l-0.125,0.113l-0.125,0.114l-0.123,0.116l-0.123,0.117l-0.122,0.119l-0.122,0.12l-0.117,-0.192l-0.117,-0.192l-0.117,-0.19l-0.117,-0.189l-0.118,-0.187l-0.118,-0.186l-0.118,-0.185l-0.118,-0.183l-0.119,-0.182l-0.118,-0.18l-0.119,-0.179l-0.12,-0.178l-0.119,-0.176l-0.12,-0.176l-0.119,-0.173l-0.121,-0.173l-0.12,-0.171l-0.12,-0.17l-0.121,-0.168l-0.121,-0.167l-0.121,-0.166l-0.121,-0.164l-0.121,-0.163l-0.122,-0.162l-0.122,-0.161l-0.122,-0.159l-0.122,-0.158l-0.122,-0.156l-0.123,-0.156l-0.123,-0.154l-0.122,-0.152l-0.123,-0.152l-0.124,-0.15l-0.123,-0.149l-0.124,-0.147l-0.123,-0.147l-0.124,-0.145l-0.124,-0.143l-0.125,-0.143l-0.124,-0.141l-0.124,-0.14l-0.125,-0.139l-0.125,-0.137l-0.125,-0.137l-0.125,-0.135l-0.125,-0.133l-0.126,-0.133l-0.125,-0.131l-0.126,-0.13l-0.126,-0.129l-0.126,-0.127l-0.126,-0.127l-0.126,-0.125l-0.126,-0.124l-0.127,-0.123l-0.126,-0.121l-0.127,-0.12l-0.127,-0.119l-0.127,-0.118l-0.127,-0.117l-0.127,-0.115l-0.127,-0.115l-0.128,-0.113l-0.127,-0.112l-0.128,-0.111l-0.127,-0.109l-0.128,-0.109l-0.128,-0.107l-0.128,-0.106l-0.128,-0.105l-0.128,-0.103l-0.129,-0.103l-0.128,-0.101l-0.128,-0.101l-0.129,-0.099l-0.128,-0.098l-0.129,-0.097l-0.129,-0.095l-0.129,-0.095l-0.128,-0.093l-0.129,-0.093l-0.129,-0.091l-0.13,-0.09l-0.129,-0.089l-0.129,-0.088l-0.129,-0.086l-0.13,-0.086l-0.129,-0.084l-0.129,-0.084l-0.13,-0.082l-0.129,-0.081l-0.13,-0.08l-0.13,-0.079l-0.129,-0.078l-0.13,-0.077l-0.13,-0.076l-0.13,-0.075l-0.129,-0.073l-0.13,-0.073l-0.13,-0.071l-0.13,-0.071l-0.13,-0.069l-0.13,-0.068l-0.13,-0.067l-0.13,-0.067l-0.13,-0.065l-0.13,-0.064l-0.13,-0.063l-0.13,-0.062l-0.13,-0.061l-0.13,-0.06l-0.13,-0.059l-0.13,-0.058l-0.13,-0.057l-0.131,-0.055l-0.13,-0.055l-0.13,-0.054l-0.13,-0.053l-0.13,-0.052l-0.13,-0.05l-0.13,-0.05l-0.13,-0.049l-0.13,-0.048l-0.13,-0.047l-0.13,-0.046l-0.13,-0.044l-0.13,-0.044l-0.129,-0.043l-0.13,-0.042l-0.13,-0.041l-0.13,-0.04l-0.13,-0.039l-0.129,-0.038l-0.13,-0.037l-0.129,-0.036l-0.13,-0.036l-0.129,-0.034l-0.13,-0.033l-0.129,-0.033l-0.13,-0.031l-0.129,-0.031l-0.129,-0.029l-0.129,-0.029l-0.129,-0.028l-0.13,-0.026l-0.128,-0.026l-0.129,-0.025l-0.129,-0.024l-0.129,-0.023l-0.129,-0.023l-0.128,-0.021l-0.129,-0.02l-0.128,-0.02l-0.129,-0.019l-0.128,-0.017l-0.128,-0.017l-0.128,-0.016l-0.128,-0.015l-0.128,-0.015l-0.128,-0.013l-0.128,-0.012l-0.127,-0.012l-0.128,-0.011l-0.127,-0.01l-0.127,-0.009l-0.128,-0.008l-0.127,-0.007l-0.127,-0.007l-0.126,-0.006l-0.127,-0.004l-0.127,-0.004l-0.126,-0.003l-0.127,-0.003l-0.126,-0.001l-0.126,-0.001l-0.126,0Z" style="fill:#4235f2;"/><rect x="51" y="61.723" width="16.632" height="18.704" style="fill:#fff;"/><path d="M59.542,89.182l0,-46.163" style="fill:none;stroke:#4235f2;stroke-width:10px;"/><path d="M44.42,58.142l15.122,-15.123l15.122,15.123" style="fill:none;stroke:#4235f2;stroke-width:10px;"/></g></svg>