<?xml version="1.0" encoding="UTF-8" standalone="no"?><!DOCTYPE svg PUBLIC "-//W3C//DTD SVG 1.1//EN" "http://www.w3.org/Graphics/SVG/1.1/DTD/svg11.dtd"><svg width="100%" height="100%" viewBox="0 0 99 131" version="1.1" xmlns="http://www.w3.org/2000/svg" xmlns:xlink="http://www.w3.org/1999/xlink" xml:space="preserve" xmlns:serif="http://www.serif.com/" style="fill-rule:evenodd;clip-rule:evenodd;stroke-linecap:round;stroke-linejoin:round;stroke-miterlimit:1.5;"><g id="Plant"><path d="M24.5,126.963l49,0l11,-43.463l-70,0l10,43.463Z" style="fill:#fff;stroke:#000;stroke-width:7px;"/><path d="M55.829,67.403c-0.189,-1.008 -5.884,-33.33 38.932,-38.903l-0.016,0.14c-5.337,47.524 -38.912,38.787 -38.912,38.787l-0.004,-0.024Z" style="fill:#fff;stroke:#000;stroke-width:7px;"/><path d="M43.999,68.029c-1.05,0.197 -34.697,6.125 -40.499,-40.529l0.145,0.016c49.474,5.556 40.379,40.508 40.379,40.508l-0.025,0.005Z" style="fill:#fff;stroke:#000;stroke-width:7px;"/><path d="M84.5,83.5l7,0l0,-16l-85,0l0,16l78,0Z" style="fill:#fff;stroke:#000;stroke-width:7px;"/><path d="M48.476,67.484c-0.984,-0.674 -32.235,-22.562 0.024,-63.984l0.102,0.127c34.679,43.455 -0.102,63.873 -0.102,63.873l-0.024,-0.016Z" style="fill:#fff;stroke:#000;stroke-width:7px;"/><path d="M56.5,67.5l21,-22" style="fill:none;stroke:#000;stroke-width:7px;"/><path d="M40.5,67.5l-18,-22" style="fill:none;stroke:#000;stroke-width:7px;"/><path d="M48.5,67.5l0,-29" style="fill:none;stroke:#000;stroke-width:7px;"/></g></svg>