<?xml version="1.0" encoding="UTF-8" standalone="no"?><!DOCTYPE svg PUBLIC "-//W3C//DTD SVG 1.1//EN" "http://www.w3.org/Graphics/SVG/1.1/DTD/svg11.dtd"><svg width="100%" height="100%" viewBox="0 0 136 134" version="1.1" xmlns="http://www.w3.org/2000/svg" xmlns:xlink="http://www.w3.org/1999/xlink" xml:space="preserve" xmlns:serif="http://www.serif.com/" style="fill-rule:evenodd;clip-rule:evenodd;stroke-linecap:round;stroke-linejoin:round;stroke-miterlimit:1.5;"><g id="Taco"><path d="M104.578,27.548c2.021,-12.403 -6.691,-22.146 -14.396,-23.669c-7.212,-1.426 -10.143,9.562 -15.678,9.522c-5.535,-0.04 -9.88,-10.351 -19.718,-9.886c-9.838,0.466 -7.945,13.521 -13.786,16.094c-5.842,2.573 -16.028,-5.889 -21.262,-0.655l-0.784,0.784c-5.234,5.234 3.228,15.42 0.655,21.262c-2.573,5.841 -15.628,3.949 -16.094,13.786c-0.466,9.838 9.949,14.08 9.989,19.615c0.04,5.535 -11.051,8.57 -9.626,15.781c1.523,7.705 13.142,15.696 23.938,14.127c7.339,-1.066 75.571,-69.455 76.762,-76.761Z" style="fill:#fff;stroke:#000;stroke-width:7px;"/><path d="M124.581,53.684c1.917,-1.916 2.923,-4.559 2.766,-7.264c-0.158,-2.706 -1.463,-5.215 -3.589,-6.896c-15.916,-12.316 -52.709,-33.816 -85.503,-1.022c-31.646,31.647 -9.806,68.188 2.596,83.998c1.682,2.105 4.181,3.394 6.871,3.544c2.69,0.15 5.317,-0.854 7.222,-2.759c15.872,-15.835 53.764,-53.727 69.637,-69.601Z" style="fill:#fff;stroke:#000;stroke-width:7px;"/><path d="M57.444,98.905l-2.093,-37.125" style="fill:none;stroke:#000;stroke-width:7px;"/><path d="M80.627,75.722l-2.093,-37.125" style="fill:none;stroke:#000;stroke-width:7px;"/></g></svg>