<?xml version="1.0" encoding="UTF-8" standalone="no"?><!DOCTYPE svg PUBLIC "-//W3C//DTD SVG 1.1//EN" "http://www.w3.org/Graphics/SVG/1.1/DTD/svg11.dtd"><svg width="100%" height="100%" viewBox="0 0 124 124" version="1.1" xmlns="http://www.w3.org/2000/svg" xmlns:xlink="http://www.w3.org/1999/xlink" xml:space="preserve" xmlns:serif="http://www.serif.com/" style="fill-rule:evenodd;clip-rule:evenodd;stroke-linecap:round;stroke-linejoin:round;stroke-miterlimit:1.5;"><g id="Clothing"><path d="M28.5,120.5l69,0l0,-23l23,0l0,-75c0,0 -19,-19 -43,-19l-31,0c-27,0 -43,19 -43,19l0,75l25,0l0,23Z" style="fill:#fff;stroke:#000;stroke-width:7px;"/><path d="M3.5,85.5l25,0" style="fill:none;stroke:#000;stroke-width:7px;"/><path d="M97.5,85.5l23,0" style="fill:none;stroke:#000;stroke-width:7px;"/><path d="M97.5,44.5l0,60l-69,0" style="fill:none;stroke:#000;stroke-width:7px;"/><path d="M28.5,97.5l0,-53" style="fill:none;stroke:#000;stroke-width:7px;"/><path d="M46.5,3.5l0,12c0,18 31,18 31,0l0,-12" style="fill:none;stroke:#000;stroke-width:7px;"/></g></svg>