<?xml version="1.0" encoding="UTF-8" standalone="no"?><!DOCTYPE svg PUBLIC "-//W3C//DTD SVG 1.1//EN" "http://www.w3.org/Graphics/SVG/1.1/DTD/svg11.dtd"><svg width="100%" height="100%" viewBox="0 0 130 128" version="1.1" xmlns="http://www.w3.org/2000/svg" xmlns:xlink="http://www.w3.org/1999/xlink" xml:space="preserve" xmlns:serif="http://www.serif.com/" style="fill-rule:evenodd;clip-rule:evenodd;stroke-linecap:round;stroke-linejoin:round;stroke-miterlimit:1.5;"><path id="Handmade" d="M98.99,57.616c0,0 -42.413,-42.413 -50.52,-50.521c-9.779,-9.778 -22.001,2.444 -12.223,12.223c5.704,5.704 28.52,28.519 28.52,28.519c0,0 -30.33,-30.329 -39.113,-39.112c-8.783,-8.784 -21.821,4.254 -13.038,13.037c7.334,7.334 39.113,39.113 39.113,39.113c0,0 -25.429,-25.429 -33.409,-33.409c-7.98,-7.98 -20.202,4.243 -12.223,12.223c6.519,6.519 35.854,35.853 35.854,35.853c0,0 -8.484,-8.484 -20.371,-20.371c-8.149,-8.148 -20.372,4.074 -12.223,12.223c8.148,8.148 45.631,45.631 45.631,45.631c0,0 29.463,25.948 57.04,-1.629c23.631,-23.631 12.223,-46.447 2.444,-87.189c-3.154,-13.143 -20.369,-9.344 -18.741,4.074c1.123,9.261 3.259,29.335 3.259,29.335c0,0 -20.221,16.538 -6.519,34.223" style="fill:#fff;stroke:#000;stroke-width:7px;"/></svg>