<?xml version="1.0" encoding="UTF-8" standalone="no"?>
<!DOCTYPE svg PUBLIC "-//W3C//DTD SVG 1.1//EN" "http://www.w3.org/Graphics/SVG/1.1/DTD/svg11.dtd">
<svg width="100%" height="100%" viewBox="0 0 439 93" version="1.1" xmlns="http://www.w3.org/2000/svg" xmlns:xlink="http://www.w3.org/1999/xlink" xml:space="preserve" xmlns:serif="http://www.serif.com/" style="fill-rule:evenodd;clip-rule:evenodd;stroke-linejoin:round;stroke-miterlimit:2;">
    <g transform="matrix(1,0,0,1,-0.656142,-1.26848)">
        <g transform="matrix(0.939684,0,0,0.939684,0.0395759,4.18995)">
            <g transform="matrix(131.228,0,0,131.228,0,94)">
                <path d="M0.595,-0L0.406,-0.698L0.194,-0.698L0.005,-0L0.157,-0L0.2,-0.168L0.391,-0.168L0.435,-0L0.595,-0ZM0.368,-0.289L0.224,-0.289L0.292,-0.553L0.3,-0.553L0.368,-0.289Z" style="fill-rule:nonzero;"/>
            </g>
            <g transform="matrix(131.228,0,0,131.228,78.737,94)">
                <path d="M0.074,-0L0.511,-0L0.511,-0.115L0.341,-0.115L0.341,-0.268C0.341,-0.33 0.379,-0.38 0.452,-0.38L0.562,-0.38L0.562,-0.516L0.513,-0.516C0.411,-0.516 0.367,-0.446 0.348,-0.37L0.341,-0.37L0.341,-0.516L0.074,-0.516L0.074,-0.401L0.193,-0.401L0.193,-0.115L0.074,-0.115L0.074,-0Z" style="fill-rule:nonzero;"/>
            </g>
            <g transform="matrix(131.228,0,0,131.228,157.474,94)">
                <path d="M0.321,0.012C0.436,0.012 0.506,-0.039 0.543,-0.114L0.431,-0.178C0.409,-0.136 0.379,-0.106 0.322,-0.106C0.252,-0.106 0.214,-0.148 0.214,-0.216L0.214,-0.3C0.214,-0.368 0.253,-0.41 0.32,-0.41C0.375,-0.41 0.403,-0.38 0.421,-0.34L0.535,-0.402C0.499,-0.477 0.433,-0.528 0.32,-0.528C0.159,-0.528 0.06,-0.425 0.06,-0.258C0.06,-0.091 0.158,0.012 0.321,0.012Z" style="fill-rule:nonzero;"/>
            </g>
            <g transform="matrix(131.228,0,0,131.228,236.211,94)">
                <path d="M0.065,-0L0.213,-0L0.213,-0.339C0.213,-0.389 0.258,-0.414 0.304,-0.414C0.362,-0.414 0.391,-0.379 0.391,-0.314L0.391,-0L0.539,-0L0.539,-0.334C0.539,-0.459 0.47,-0.528 0.371,-0.528C0.288,-0.528 0.242,-0.48 0.219,-0.422L0.213,-0.422L0.213,-0.74L0.065,-0.74L0.065,-0Z" style="fill-rule:nonzero;"/>
            </g>
            <g transform="matrix(131.228,0,0,131.228,314.948,94)">
                <path d="M0.314,0.012C0.425,0.012 0.495,-0.03 0.535,-0.079L0.455,-0.166C0.423,-0.128 0.38,-0.102 0.319,-0.102C0.24,-0.102 0.197,-0.147 0.197,-0.213L0.197,-0.222L0.55,-0.222L0.55,-0.266C0.55,-0.427 0.455,-0.528 0.301,-0.528C0.146,-0.528 0.05,-0.425 0.05,-0.256C0.05,-0.091 0.141,0.012 0.314,0.012ZM0.302,-0.422C0.366,-0.422 0.405,-0.38 0.405,-0.313L0.405,-0.305L0.197,-0.305L0.197,-0.313C0.197,-0.379 0.238,-0.422 0.302,-0.422Z" style="fill-rule:nonzero;"/>
            </g>
            <g transform="matrix(131.228,0,0,131.228,393.685,94)">
                <path d="M0.074,-0L0.511,-0L0.511,-0.115L0.341,-0.115L0.341,-0.268C0.341,-0.33 0.379,-0.38 0.452,-0.38L0.562,-0.38L0.562,-0.516L0.513,-0.516C0.411,-0.516 0.367,-0.446 0.348,-0.37L0.341,-0.37L0.341,-0.516L0.074,-0.516L0.074,-0.401L0.193,-0.401L0.193,-0.115L0.074,-0.115L0.074,-0Z" style="fill-rule:nonzero;"/>
            </g>
        </g>
    </g>
</svg>
