<?xml version="1.0" encoding="UTF-8" standalone="no"?><!DOCTYPE svg PUBLIC "-//W3C//DTD SVG 1.1//EN" "http://www.w3.org/Graphics/SVG/1.1/DTD/svg11.dtd"><svg width="100%" height="100%" viewBox="0 0 462 94" version="1.1" xmlns="http://www.w3.org/2000/svg" xmlns:xlink="http://www.w3.org/1999/xlink" xml:space="preserve" xmlns:serif="http://www.serif.com/" style="fill-rule:evenodd;clip-rule:evenodd;stroke-linejoin:round;stroke-miterlimit:2;"><g><path d="M0,92.266l0,-92.266l61.203,0l0,16.259l-41.375,0l0,21.15l37.012,0l0,16.259l-37.012,0l0,38.598l-19.828,0Z" style="fill-rule:nonzero;"/><path d="M108.393,93.853c-5.287,0 -10.046,-0.816 -14.276,-2.446c-4.23,-1.63 -7.821,-3.987 -10.773,-7.072c-2.952,-3.084 -5.222,-6.829 -6.808,-11.236c-1.586,-4.406 -2.379,-9.385 -2.379,-14.937c0,-5.552 0.793,-10.531 2.379,-14.937c1.586,-4.406 3.856,-8.151 6.808,-11.236c2.952,-3.084 6.543,-5.441 10.773,-7.072c4.23,-1.63 8.989,-2.445 14.276,-2.445c5.288,0 10.046,0.815 14.276,2.445c4.23,1.631 7.821,3.988 10.774,7.072c2.952,3.085 5.221,6.83 6.807,11.236c1.586,4.406 2.38,9.385 2.38,14.937c0,5.552 -0.794,10.531 -2.38,14.937c-1.586,4.407 -3.855,8.152 -6.807,11.236c-2.953,3.085 -6.544,5.442 -10.774,7.072c-4.23,1.63 -8.988,2.446 -14.276,2.446Zm0,-14.541c4.406,0 7.843,-1.366 10.311,-4.098c2.467,-2.732 3.701,-6.609 3.701,-11.632l0,-10.839c0,-5.024 -1.234,-8.901 -3.701,-11.633c-2.468,-2.732 -5.905,-4.098 -10.311,-4.098c-4.406,0 -7.843,1.366 -10.31,4.098c-2.468,2.732 -3.702,6.609 -3.702,11.633l0,10.839c0,5.023 1.234,8.9 3.702,11.632c2.467,2.732 5.904,4.098 10.31,4.098Z" style="fill-rule:nonzero;"/><path d="M192.993,92.266c-7.05,0 -12.294,-1.85 -15.73,-5.551c-3.437,-3.702 -5.156,-8.416 -5.156,-14.144l0,-33.312l-18.506,0l0,-15.201l12.029,0c2.908,0 4.979,-0.573 6.213,-1.718c1.234,-1.146 1.85,-3.261 1.85,-6.345l0,-15.995l17.978,0l0,24.058l26.569,0l0,15.201l-26.569,0l0,37.806l26.569,0l0,15.201l-25.247,0Z" style="fill-rule:nonzero;"/><path d="M278.518,79.841l-0.793,0c-1.499,3.877 -3.856,7.182 -7.072,9.914c-3.217,2.732 -7.557,4.098 -13.021,4.098c-3.26,0 -6.257,-0.551 -8.989,-1.653c-2.731,-1.101 -5.067,-2.754 -7.005,-4.957c-1.939,-2.203 -3.459,-4.891 -4.561,-8.063c-1.101,-3.173 -1.652,-6.83 -1.652,-10.972l0,-44.15l19.563,0l0,41.507c0,8.812 3.834,13.218 11.501,13.218c1.498,0 2.974,-0.198 4.428,-0.594c1.454,-0.397 2.732,-1.014 3.833,-1.851c1.102,-0.837 2.005,-1.873 2.71,-3.106c0.705,-1.234 1.058,-2.688 1.058,-4.363l0,-44.811l19.563,0l0,68.208l-19.563,0l0,-12.425Z" style="fill-rule:nonzero;"/><path d="M316.455,77.065l15.731,0l0,-37.806l-15.731,0l0,-15.201l35.294,0l0,19.299l0.925,0c0.617,-2.467 1.477,-4.869 2.578,-7.204c1.102,-2.335 2.512,-4.406 4.23,-6.213c1.719,-1.806 3.811,-3.238 6.279,-4.296c2.467,-1.057 5.376,-1.586 8.724,-1.586l6.477,0l0,17.977l-14.54,0c-4.847,0 -8.504,1.432 -10.972,4.296c-2.467,2.865 -3.701,6.367 -3.701,10.509l0,20.225l22.472,0l0,15.201l-57.766,0l0,-15.201Z" style="fill-rule:nonzero;"/><path d="M450.361,92.266c-4.054,0 -7.315,-1.035 -9.782,-3.106c-2.468,-2.071 -3.922,-5.045 -4.362,-8.923l-0.661,0c-1.234,4.495 -3.68,7.888 -7.337,10.179c-3.657,2.291 -8.129,3.437 -13.417,3.437c-6.609,0 -11.919,-1.785 -15.928,-5.354c-4.01,-3.569 -6.015,-8.57 -6.015,-15.003c0,-7.138 2.6,-12.426 7.799,-15.863c5.2,-3.436 12.822,-5.155 22.869,-5.155l10.971,0l0,-3.437c0,-4.053 -0.947,-7.116 -2.842,-9.187c-1.895,-2.071 -5.089,-3.106 -9.583,-3.106c-4.142,0 -7.491,0.793 -10.047,2.379c-2.555,1.587 -4.758,3.657 -6.609,6.213l-10.707,-9.517c2.291,-3.878 5.882,-7.072 10.773,-9.584c4.891,-2.511 11.17,-3.767 18.837,-3.767c9.341,0 16.633,2.137 21.877,6.411c5.243,4.274 7.865,10.729 7.865,19.365l0,29.874l7.534,0l0,14.144l-11.235,0Zm-28.156,-11.235c3.437,0 6.345,-0.838 8.724,-2.512c2.379,-1.674 3.569,-4.098 3.569,-7.27l0,-8.196l-10.443,0c-8.019,0 -12.029,2.688 -12.029,8.064l0,2.643c0,2.38 0.926,4.186 2.776,5.42c1.851,1.234 4.318,1.851 7.403,1.851Z" style="fill-rule:nonzero;"/></g></svg>