<?xml version="1.0" encoding="UTF-8" standalone="no"?><!DOCTYPE svg PUBLIC "-//W3C//DTD SVG 1.1//EN" "http://www.w3.org/Graphics/SVG/1.1/DTD/svg11.dtd"><svg width="100%" height="100%" viewBox="0 0 412 252" version="1.1" xmlns="http://www.w3.org/2000/svg" xmlns:xlink="http://www.w3.org/1999/xlink" xml:space="preserve" xmlns:serif="http://www.serif.com/" style="fill-rule:evenodd;clip-rule:evenodd;stroke-linecap:round;stroke-linejoin:round;stroke-miterlimit:1.5;"><g><g><path d="M222.665,125.218l36.918,0l-16.365,-17.088" style="fill:none;stroke:#000;stroke-width:7px;"/><path d="M222.665,125.218l36.918,0l-16.365,16.934" style="fill:none;stroke:#000;stroke-width:7px;"/></g><g id="Product"><path d="M386.052,181.257l21.949,-21.97l0,-90.262l-22.141,22.162l0.192,90.07Z" style="fill:#383838;stroke:#000;stroke-width:7px;"/><path d="M340.442,180.801l21.672,-21.692l0,-90.262l-21.865,21.884l0.193,90.07Z" style="fill:none;stroke:#000;stroke-width:7px;"/><path d="M340.777,181.257l45.275,0l0,-90.348l-45.641,-0.455l0.366,90.803Z" style="fill:#fff;stroke:#000;stroke-width:7px;"/><path d="M386.052,90.909l21.949,-21.884l-45.939,-0.242l-21.651,21.671l45.641,0.455Z" style="fill:#fff;stroke:#000;stroke-width:7px;"/></g><g id="Product1" serif:id="Product"><rect x="0" y="0" width="152" height="252" style="fill:#fff;"/><path d="M87.876,181.998l21.856,-21.876l0,-89.88l-22.047,22.068l0.191,89.688Z" style="fill:#fff;stroke:#000;stroke-width:7px;"/><path d="M42.459,181.545l21.58,-21.601l0,-89.879l-21.771,21.792l0.191,89.688Z" style="fill:none;stroke:#000;stroke-width:7px;"/><path d="M42.793,181.998l45.083,0l0,-89.964l-45.447,-0.453l0.364,90.417Z" style="fill:#fff;stroke:#000;stroke-width:7px;"/><path d="M87.876,92.034l21.856,-21.792l-45.744,-0.24l-21.559,21.579l45.447,0.453Z" style="fill:#fff;stroke:#000;stroke-width:7px;"/></g></g></svg>