<?xml version="1.0" encoding="UTF-8" standalone="no"?><!DOCTYPE svg PUBLIC "-//W3C//DTD SVG 1.1//EN" "http://www.w3.org/Graphics/SVG/1.1/DTD/svg11.dtd"><svg width="100%" height="100%" viewBox="0 0 160 142" version="1.1" xmlns="http://www.w3.org/2000/svg" xmlns:xlink="http://www.w3.org/1999/xlink" xml:space="preserve" xmlns:serif="http://www.serif.com/" style="fill-rule:evenodd;clip-rule:evenodd;stroke-linecap:round;stroke-linejoin:round;stroke-miterlimit:1.5;"><g id="rotate-indicator" serif:id="rotate indicator"><g><path d="M80,118.362l-16.989,-17" style="fill:none;stroke:#000;stroke-width:10px;"/><path d="M63.011,136.362c0,0 17.023,-18 16.989,-18c-46.394,0 -75,-23.596 -75,-41.5c0,-22.905 33.606,-41.5 75,-41.5c41.394,0 75,18.595 75,41.5c0,16.904 -21.606,37.5 -54,41.5" style="fill:none;stroke:#000;stroke-width:10px;"/></g><g><path d="M116.011,26.362l-34.473,19l0,41l34.473,-19l0,-41Z" style="fill:#fff;stroke:#000;stroke-width:10px;"/><path d="M116.018,25.104l-33.677,-20.104l-35.282,20.619l33.677,20.104l35.282,-20.619Z" style="fill:#fff;stroke:#000;stroke-width:10px;"/><path d="M81.538,45.362l-34.472,-19l0,41l34.472,19l0,-41Z" style="fill:#fff;stroke:#000;stroke-width:10px;"/></g></g></svg>