<?xml version="1.0" encoding="UTF-8" standalone="no"?><!DOCTYPE svg PUBLIC "-//W3C//DTD SVG 1.1//EN" "http://www.w3.org/Graphics/SVG/1.1/DTD/svg11.dtd"><svg width="100%" height="100%" viewBox="0 0 186 186" version="1.1" xmlns="http://www.w3.org/2000/svg" xmlns:xlink="http://www.w3.org/1999/xlink" xml:space="preserve" xmlns:serif="http://www.serif.com/" style="fill-rule:evenodd;clip-rule:evenodd;stroke-linecap:round;stroke-linejoin:round;stroke-miterlimit:1.5;"><g id="services-photoshoot"><rect x="0" y="0" width="185.362" height="185.362" style="fill:none;"/><g><path d="M120.93,76.849l-28.249,15.57l0,33.599l28.249,-15.57l0,-33.599Z" style="fill:#fff;stroke:#000;stroke-width:10px;"/><path d="M120.936,75.819l-27.598,-16.475l-28.912,16.897l27.598,16.475l28.912,-16.897Z" style="fill:#fff;stroke:#000;stroke-width:10px;"/><path d="M92.681,92.419l-28.249,-15.57l0,33.599l28.249,15.57l0,-33.599Z" style="fill:#fff;stroke:#000;stroke-width:10px;"/></g><g><path d="M39.449,64.29l0,-24.59l24.977,0" style="fill:none;stroke:#000;stroke-width:10px;"/><path d="M64.232,143.701l-24.589,0l0,-24.976" style="fill:none;stroke:#000;stroke-width:10px;"/><path d="M145.906,118.918l0,24.59l-24.976,0" style="fill:none;stroke:#000;stroke-width:10px;"/><path d="M121.124,39.7l24.589,0l0,24.977" style="fill:none;stroke:#000;stroke-width:10px;"/></g></g></svg>