<?xml version="1.0" encoding="UTF-8" standalone="no"?><!DOCTYPE svg PUBLIC "-//W3C//DTD SVG 1.1//EN" "http://www.w3.org/Graphics/SVG/1.1/DTD/svg11.dtd"><svg width="100%" height="100%" viewBox="0 0 707 86" version="1.1" xmlns="http://www.w3.org/2000/svg" xmlns:xlink="http://www.w3.org/1999/xlink" xml:space="preserve" xmlns:serif="http://www.serif.com/" style="fill-rule:evenodd;clip-rule:evenodd;stroke-linejoin:round;stroke-miterlimit:2;"><g id="admin"><path d="M1.882,41.882c0.236,-3.921 1.216,-7.176 2.942,-9.764c1.725,-2.589 3.921,-4.667 6.588,-6.236c2.666,-1.568 5.666,-2.686 9,-3.353c3.333,-0.666 6.686,-1 10.059,-1c3.058,0 6.156,0.216 9.294,0.647c3.137,0.432 6,1.275 8.588,2.53c2.588,1.255 4.706,3 6.353,5.235c1.647,2.235 2.47,5.196 2.47,8.883l0,31.647c0,2.745 0.157,5.372 0.471,7.882c0.314,2.51 0.863,4.392 1.647,5.647l-16.941,0c-0.314,-0.941 -0.569,-1.902 -0.765,-2.882c-0.196,-0.981 -0.333,-1.981 -0.412,-3c-2.666,2.745 -5.803,4.666 -9.411,5.764c-3.608,1.098 -7.294,1.647 -11.059,1.647c-2.902,0 -5.608,-0.353 -8.118,-1.058c-2.51,-0.706 -4.706,-1.804 -6.588,-3.295c-1.882,-1.49 -3.353,-3.372 -4.412,-5.647c-1.059,-2.274 -1.588,-4.98 -1.588,-8.117c0,-3.451 0.608,-6.294 1.824,-8.53c1.215,-2.235 2.784,-4.019 4.705,-5.353c1.922,-1.333 4.118,-2.333 6.589,-3c2.47,-0.666 4.96,-1.196 7.47,-1.588c2.51,-0.392 4.981,-0.706 7.412,-0.941c2.431,-0.235 4.588,-0.588 6.471,-1.059c1.882,-0.47 3.372,-1.157 4.47,-2.059c1.098,-0.902 1.608,-2.215 1.53,-3.941c0,-1.804 -0.295,-3.235 -0.883,-4.294c-0.588,-1.059 -1.372,-1.882 -2.353,-2.471c-0.98,-0.588 -2.117,-0.98 -3.411,-1.176c-1.295,-0.196 -2.687,-0.294 -4.177,-0.294c-3.294,0 -5.882,0.706 -7.765,2.118c-1.882,1.411 -2.98,3.764 -3.294,7.058l-16.706,0Zm38.589,12.353c-0.706,0.628 -1.589,1.118 -2.647,1.471c-1.059,0.353 -2.197,0.647 -3.412,0.882c-1.216,0.236 -2.49,0.432 -3.824,0.588c-1.333,0.157 -2.666,0.353 -4,0.589c-1.255,0.235 -2.49,0.549 -3.706,0.941c-1.215,0.392 -2.274,0.921 -3.176,1.588c-0.902,0.667 -1.628,1.51 -2.177,2.53c-0.549,1.019 -0.823,2.313 -0.823,3.882c0,1.49 0.274,2.745 0.823,3.765c0.549,1.019 1.295,1.823 2.236,2.411c0.941,0.589 2.039,1 3.294,1.236c1.255,0.235 2.549,0.353 3.882,0.353c3.294,0 5.843,-0.549 7.647,-1.647c1.804,-1.099 3.137,-2.412 4,-3.942c0.863,-1.529 1.392,-3.078 1.588,-4.647c0.197,-1.568 0.295,-2.823 0.295,-3.764l0,-6.236Z" style="fill-rule:nonzero;"/><path d="M113.294,53.412c0,2.51 -0.235,4.941 -0.706,7.294c-0.47,2.353 -1.255,4.451 -2.353,6.294c-1.098,1.843 -2.568,3.314 -4.411,4.412c-1.844,1.098 -4.138,1.647 -6.883,1.647c-2.588,0 -4.804,-0.569 -6.647,-1.706c-1.843,-1.137 -3.372,-2.628 -4.588,-4.471c-1.216,-1.843 -2.098,-3.941 -2.647,-6.294c-0.549,-2.353 -0.824,-4.706 -0.824,-7.059c0,-2.509 0.255,-4.921 0.765,-7.235c0.51,-2.314 1.333,-4.372 2.471,-6.176c1.137,-1.804 2.647,-3.255 4.529,-4.353c1.882,-1.098 4.196,-1.647 6.941,-1.647c2.745,0 5.02,0.549 6.824,1.647c1.804,1.098 3.274,2.529 4.411,4.294c1.138,1.765 1.942,3.804 2.412,6.117c0.471,2.314 0.706,4.726 0.706,7.236Zm0.235,22.823l0,7.765l15.883,0l0,-84l-16.706,0l0,30.588l-0.235,0c-1.883,-2.98 -4.451,-5.235 -7.706,-6.764c-3.255,-1.53 -6.687,-2.295 -10.294,-2.295c-4.471,0 -8.393,0.883 -11.765,2.647c-3.373,1.765 -6.177,4.099 -8.412,7c-2.235,2.902 -3.921,6.255 -5.059,10.059c-1.137,3.804 -1.706,7.745 -1.706,11.824c0,4.235 0.569,8.314 1.706,12.235c1.138,3.922 2.824,7.392 5.059,10.412c2.235,3.019 5.079,5.412 8.53,7.176c3.451,1.765 7.451,2.647 12,2.647c4,0 7.588,-0.725 10.764,-2.176c3.177,-1.451 5.745,-3.824 7.706,-7.118l0.235,0Z" style="fill-rule:nonzero;"/><path d="M142.471,23.176l0,60.824l16.705,0l0,-35.294c0,-2.981 0.432,-5.392 1.295,-7.235c0.862,-1.844 1.902,-3.255 3.117,-4.236c1.216,-0.98 2.471,-1.647 3.765,-2c1.294,-0.353 2.333,-0.529 3.118,-0.529c2.666,0 4.686,0.451 6.058,1.353c1.373,0.902 2.353,2.098 2.942,3.588c0.588,1.49 0.921,3.118 1,4.882c0.078,1.765 0.117,3.549 0.117,5.353l0,34.118l16.706,0l0,-33.882c0,-1.883 0.137,-3.745 0.412,-5.589c0.274,-1.843 0.823,-3.49 1.647,-4.941c0.823,-1.451 1.961,-2.627 3.412,-3.529c1.451,-0.902 3.353,-1.353 5.706,-1.353c2.353,0 4.215,0.392 5.588,1.176c1.372,0.785 2.412,1.843 3.117,3.177c0.706,1.333 1.138,2.902 1.295,4.706c0.156,1.804 0.235,3.725 0.235,5.764l0,34.471l16.706,0l0,-40.706c0,-3.921 -0.549,-7.274 -1.647,-10.059c-1.098,-2.784 -2.628,-5.039 -4.589,-6.764c-1.96,-1.726 -4.313,-2.981 -7.058,-3.765c-2.745,-0.784 -5.726,-1.177 -8.942,-1.177c-4.235,0 -7.901,1.02 -11,3.059c-3.098,2.039 -5.549,4.392 -7.352,7.059c-1.648,-3.765 -4.059,-6.392 -7.236,-7.882c-3.176,-1.49 -6.686,-2.236 -10.529,-2.236c-4,0 -7.549,0.863 -10.647,2.589c-3.098,1.725 -5.745,4.157 -7.941,7.294l-0.236,0l0,-8.236l-15.764,0Z" style="fill-rule:nonzero;"/><path d="M265.765,13.765l0,-13.765l-16.706,0l0,13.765l16.706,0Zm-16.706,9.411l0,60.824l16.706,0l0,-60.824l-16.706,0Z" style="fill-rule:nonzero;"/><path d="M278.941,23.176l0,60.824l16.706,0l0,-31.882c0,-6.196 1.02,-10.647 3.059,-13.353c2.039,-2.706 5.333,-4.059 9.882,-4.059c4,0 6.785,1.235 8.353,3.706c1.569,2.47 2.353,6.215 2.353,11.235l0,34.353l16.706,0l0,-37.412c0,-3.764 -0.333,-7.196 -1,-10.294c-0.667,-3.098 -1.824,-5.725 -3.471,-7.882c-1.647,-2.157 -3.902,-3.843 -6.764,-5.059c-2.863,-1.216 -6.53,-1.824 -11,-1.824c-3.53,0 -6.981,0.804 -10.353,2.412c-3.373,1.608 -6.118,4.177 -8.236,7.706l-0.352,0l0,-8.471l-15.883,0Z" style="fill-rule:nonzero;"/><rect x="349.412" y="65.882" width="18.471" height="18.118" style="fill-rule:nonzero;"/><path d="M385.059,34.353l0,49.647l16.706,0l0,-49.647l11.529,0l0,-11.177l-11.529,0l0,-3.647c0,-2.509 0.49,-4.294 1.47,-5.353c0.981,-1.058 2.608,-1.588 4.883,-1.588c2.117,0 4.157,0.118 6.117,0.353l0,-12.47c-1.411,-0.079 -2.862,-0.177 -4.353,-0.295c-1.49,-0.117 -2.98,-0.176 -4.47,-0.176c-6.824,0 -11.922,1.725 -15.294,5.176c-3.373,3.451 -5.059,7.883 -5.059,13.295l0,4.705l-10,0l0,11.177l10,0Z" style="fill-rule:nonzero;"/><path d="M435.412,53.647c0,-2.431 0.235,-4.823 0.706,-7.176c0.47,-2.353 1.274,-4.432 2.411,-6.236c1.138,-1.804 2.647,-3.274 4.53,-4.411c1.882,-1.138 4.235,-1.706 7.059,-1.706c2.823,0 5.196,0.568 7.117,1.706c1.922,1.137 3.451,2.607 4.589,4.411c1.137,1.804 1.941,3.883 2.411,6.236c0.471,2.353 0.706,4.745 0.706,7.176c0,2.431 -0.235,4.804 -0.706,7.118c-0.47,2.313 -1.274,4.392 -2.411,6.235c-1.138,1.843 -2.667,3.314 -4.589,4.412c-1.921,1.098 -4.294,1.647 -7.117,1.647c-2.824,0 -5.177,-0.549 -7.059,-1.647c-1.883,-1.098 -3.392,-2.569 -4.53,-4.412c-1.137,-1.843 -1.941,-3.922 -2.411,-6.235c-0.471,-2.314 -0.706,-4.687 -0.706,-7.118Zm-16.706,0c0,4.863 0.745,9.255 2.235,13.177c1.49,3.921 3.608,7.274 6.353,10.058c2.745,2.785 6.039,4.922 9.882,6.412c3.844,1.49 8.157,2.235 12.942,2.235c4.784,0 9.117,-0.745 13,-2.235c3.882,-1.49 7.196,-3.627 9.941,-6.412c2.745,-2.784 4.863,-6.137 6.353,-10.058c1.49,-3.922 2.235,-8.314 2.235,-13.177c0,-4.863 -0.745,-9.274 -2.235,-13.235c-1.49,-3.961 -3.608,-7.334 -6.353,-10.118c-2.745,-2.784 -6.059,-4.941 -9.941,-6.47c-3.883,-1.53 -8.216,-2.295 -13,-2.295c-4.785,0 -9.098,0.765 -12.942,2.295c-3.843,1.529 -7.137,3.686 -9.882,6.47c-2.745,2.784 -4.863,6.157 -6.353,10.118c-1.49,3.961 -2.235,8.372 -2.235,13.235Z" style="fill-rule:nonzero;"/><path d="M513.647,23.176l0,-18.235l-16.706,0l0,18.235l-10.117,0l0,11.177l10.117,0l0,35.882c0,3.059 0.51,5.53 1.53,7.412c1.019,1.882 2.411,3.333 4.176,4.353c1.765,1.02 3.804,1.706 6.118,2.059c2.313,0.353 4.764,0.529 7.353,0.529c1.647,0 3.333,-0.039 5.058,-0.117c1.726,-0.079 3.295,-0.236 4.706,-0.471l0,-12.941c-0.784,0.157 -1.607,0.274 -2.47,0.353c-0.863,0.078 -1.765,0.117 -2.706,0.117c-2.824,0 -4.706,-0.47 -5.647,-1.411c-0.941,-0.942 -1.412,-2.824 -1.412,-5.647l0,-30.118l12.235,0l0,-11.177l-12.235,0Z" style="fill-rule:nonzero;"/><path d="M590.941,84l0,-60.824l-16.706,0l0,31.883c0,6.196 -1.019,10.647 -3.059,13.353c-2.039,2.706 -5.333,4.059 -9.882,4.059c-4,0 -6.784,-1.236 -8.353,-3.706c-1.568,-2.471 -2.353,-6.216 -2.353,-11.236l0,-34.353l-16.706,0l0,37.412c0,3.765 0.334,7.196 1,10.294c0.667,3.098 1.824,5.726 3.471,7.883c1.647,2.157 3.902,3.823 6.765,5c2.862,1.176 6.529,1.764 11,1.764c3.529,0 6.98,-0.784 10.353,-2.353c3.372,-1.568 6.117,-4.117 8.235,-7.647l0.353,0l0,8.471l15.882,0Z" style="fill-rule:nonzero;"/><path d="M603.647,23.176l0,60.824l16.706,0l0,-27.412c0,-2.745 0.274,-5.294 0.823,-7.647c0.549,-2.353 1.471,-4.412 2.765,-6.176c1.294,-1.765 3,-3.157 5.118,-4.177c2.117,-1.019 4.706,-1.529 7.765,-1.529c1.019,0 2.078,0.059 3.176,0.176c1.098,0.118 2.039,0.255 2.824,0.412l0,-15.529c-1.334,-0.393 -2.549,-0.589 -3.648,-0.589c-2.117,0 -4.156,0.314 -6.117,0.942c-1.961,0.627 -3.804,1.509 -5.53,2.647c-1.725,1.137 -3.254,2.509 -4.588,4.117c-1.333,1.608 -2.392,3.353 -3.176,5.236l-0.236,0l0,-11.295l-15.882,0Z" style="fill-rule:nonzero;"/><path d="M648.706,41.882c0.235,-3.921 1.216,-7.176 2.941,-9.764c1.726,-2.589 3.922,-4.667 6.588,-6.236c2.667,-1.568 5.667,-2.686 9,-3.353c3.334,-0.666 6.687,-1 10.059,-1c3.059,0 6.157,0.216 9.294,0.647c3.137,0.432 6,1.275 8.588,2.53c2.589,1.255 4.706,3 6.353,5.235c1.647,2.235 2.471,5.196 2.471,8.883l0,31.647c0,2.745 0.157,5.372 0.471,7.882c0.313,2.51 0.862,4.392 1.647,5.647l-16.942,0c-0.313,-0.941 -0.568,-1.902 -0.764,-2.882c-0.196,-0.981 -0.334,-1.981 -0.412,-3c-2.667,2.745 -5.804,4.666 -9.412,5.764c-3.608,1.098 -7.294,1.647 -11.059,1.647c-2.902,0 -5.607,-0.353 -8.117,-1.058c-2.51,-0.706 -4.706,-1.804 -6.588,-3.295c-1.883,-1.49 -3.353,-3.372 -4.412,-5.647c-1.059,-2.274 -1.588,-4.98 -1.588,-8.117c0,-3.451 0.607,-6.294 1.823,-8.53c1.216,-2.235 2.784,-4.019 4.706,-5.353c1.922,-1.333 4.118,-2.333 6.588,-3c2.471,-0.666 4.961,-1.196 7.471,-1.588c2.51,-0.392 4.98,-0.706 7.412,-0.941c2.431,-0.235 4.588,-0.588 6.47,-1.059c1.882,-0.47 3.373,-1.157 4.471,-2.059c1.098,-0.902 1.608,-2.215 1.529,-3.941c0,-1.804 -0.294,-3.235 -0.882,-4.294c-0.588,-1.059 -1.373,-1.882 -2.353,-2.471c-0.981,-0.588 -2.118,-0.98 -3.412,-1.176c-1.294,-0.196 -2.686,-0.294 -4.176,-0.294c-3.295,0 -5.883,0.706 -7.765,2.118c-1.882,1.411 -2.981,3.764 -3.294,7.058l-16.706,0Zm38.588,12.353c-0.706,0.628 -1.588,1.118 -2.647,1.471c-1.059,0.353 -2.196,0.647 -3.412,0.882c-1.215,0.236 -2.49,0.432 -3.823,0.588c-1.334,0.157 -2.667,0.353 -4,0.589c-1.255,0.235 -2.49,0.549 -3.706,0.941c-1.216,0.392 -2.275,0.921 -3.177,1.588c-0.902,0.667 -1.627,1.51 -2.176,2.53c-0.549,1.019 -0.824,2.313 -0.824,3.882c0,1.49 0.275,2.745 0.824,3.765c0.549,1.019 1.294,1.823 2.235,2.411c0.941,0.589 2.039,1 3.294,1.236c1.255,0.235 2.549,0.353 3.883,0.353c3.294,0 5.843,-0.549 7.647,-1.647c1.804,-1.099 3.137,-2.412 4,-3.942c0.863,-1.529 1.392,-3.078 1.588,-4.647c0.196,-1.568 0.294,-2.823 0.294,-3.764l0,-6.236Z" style="fill-rule:nonzero;"/></g></svg>