<?xml version="1.0" encoding="UTF-8" standalone="no"?><!DOCTYPE svg PUBLIC "-//W3C//DTD SVG 1.1//EN" "http://www.w3.org/Graphics/SVG/1.1/DTD/svg11.dtd"><svg width="100%" height="100%" viewBox="0 0 14 53" version="1.1" xmlns="http://www.w3.org/2000/svg" xmlns:xlink="http://www.w3.org/1999/xlink" xml:space="preserve" xmlns:serif="http://www.serif.com/" style="fill-rule:evenodd;clip-rule:evenodd;stroke-linejoin:round;stroke-miterlimit:2;"><g id="more"><path d="M13.653,6.826c0,3.768 -3.059,6.827 -6.827,6.827c-3.767,0 -6.826,-3.059 -6.826,-6.827c0,-3.767 3.059,-6.826 6.826,-6.826c3.768,0 6.827,3.059 6.827,6.826Z"/><path d="M13.653,26.548c0,3.767 -3.059,6.826 -6.827,6.826c-3.767,0 -6.826,-3.059 -6.826,-6.826c0,-3.768 3.059,-6.827 6.826,-6.827c3.768,0 6.827,3.059 6.827,6.827Z"/><path d="M13.653,45.826c0,3.768 -3.059,6.827 -6.827,6.827c-3.767,0 -6.826,-3.059 -6.826,-6.827c0,-3.767 3.059,-6.826 6.826,-6.826c3.768,0 6.827,3.059 6.827,6.826Z"/></g></svg>