<?xml version="1.0" encoding="UTF-8" standalone="no"?><!DOCTYPE svg PUBLIC "-//W3C//DTD SVG 1.1//EN" "http://www.w3.org/Graphics/SVG/1.1/DTD/svg11.dtd"><svg width="100%" height="100%" viewBox="0 0 1000 1000" version="1.1" xmlns="http://www.w3.org/2000/svg" xmlns:xlink="http://www.w3.org/1999/xlink" xml:space="preserve" xmlns:serif="http://www.serif.com/" style="fill-rule:evenodd;clip-rule:evenodd;stroke-linecap:round;stroke-linejoin:round;stroke-miterlimit:1.5;"><rect id="Patterns-2" serif:id="Patterns 2" x="0" y="0" width="1000" height="1000" style="fill:none;"/><clipPath id="_clip1"><rect x="0" y="0" width="1000" height="1000"/></clipPath><g clip-path="url(#_clip1)"><path d="M367.132,33.452c0,0 -51.7,13.897 -51.139,61.157c0.572,48.263 -49.469,60.546 -49.469,60.546" style="fill:none;stroke:#339aff;stroke-width:20px;"/><path d="M818.723,88.097c0,0 -26.022,-79.263 -99.511,-74.371c-75.049,4.996 -98.418,-71.823 -98.418,-71.823" style="fill:none;stroke:#339aff;stroke-width:20px;"/><path d="M818.723,1088.09c0,0 -26.022,-79.263 -99.511,-74.37c-75.049,4.996 -98.418,-71.823 -98.418,-71.823" style="fill:none;stroke:#339aff;stroke-width:20px;"/><path d="M188.051,250c0,0 -2.691,71.772 89.634,83.903c94.283,12.388 89.404,81.539 89.404,81.539" style="fill:none;stroke:#00eaac;stroke-width:20px;"/><path d="M910.291,652.955c0,0 -2.69,71.772 89.634,83.903c94.283,12.388 89.404,81.539 89.404,81.539" style="fill:none;stroke:#00eaac;stroke-width:20px;"/><path d="M-89.709,652.955c0,0 -2.69,71.772 89.634,83.903c94.283,12.388 89.404,81.539 89.404,81.539" style="fill:none;stroke:#00eaac;stroke-width:20px;"/><path d="M406.205,652.955c0,0 -45.361,28.432 -30.982,73.454c14.685,45.978 -29.563,72.38 -29.563,72.38" style="fill:none;stroke:#00eaac;stroke-width:20px;"/><circle cx="719.758" cy="393.118" r="60.397" style="fill:none;stroke:#339aff;stroke-width:20px;"/><circle cx="195.977" cy="604.977" r="47.977" style="fill:none;stroke:#339aff;stroke-width:20px;"/></g></svg>